M48
; DRILL file KiCad 10.0.6-1.fc44 date 2026-09-20T00:43:53
; FORMAT={-:-/ absolute / metric / decimal}
; #@! TF.CreationDate,2026-09-20T00:43:53+05:30
; #@! TF.GenerationSoftware,Kicad,Pcbnew,10.0.6-1.fc44
; #@! TF.FileFunction,Plated,1,2,PTH
FMAT,2
METRIC
; #@! TA.AperFunction,Plated,PTH,ViaDrill
T1C0.300
; #@! TA.AperFunction,Plated,PTH,ComponentDrill
T2C0.800
; #@! TA.AperFunction,Plated,PTH,ComponentDrill
T3C0.900
; #@! TA.AperFunction,Plated,PTH,ComponentDrill
T4C1.000
; #@! TA.AperFunction,Plated,PTH,ComponentDrill
T5C1.016
; #@! TA.AperFunction,Plated,PTH,ComponentDrill
T6C1.100
; #@! TA.AperFunction,Plated,PTH,ComponentDrill
T7C1.200
%
G90
G05
T1
X192.5Y-111.02
X192.5Y-112.52
X193.46Y-100.52
X193.5Y-106.02
X196.0Y-106.02
X196.0Y-111.02
X196.0Y-112.52
X196.847Y-100.52
X198.5Y-116.02
X200.5Y-71.48
X200.5Y-74.02
X200.5Y-109.52
X207.5Y-109.52
X207.5Y-114.02
X211.0Y-81.52
X212.5Y-66.75
X212.5Y-69.52
X214.7Y-72.72
X216.0Y-78.52
X217.0Y-69.52
X218.5Y-86.02
X219.0Y-113.52
X219.136Y-88.385
X219.5Y-93.02
X220.4Y-66.42
X222.047Y-93.6
X222.48Y-113.5
X223.511Y-98.531
X224.0Y-101.02
X224.0Y-104.02
X224.0Y-113.52
X226.5Y-106.52
X226.5Y-113.52
X227.95Y-93.59
X229.08Y-113.52
X234.16Y-113.52
T2
X193.347Y-98.02
X196.847Y-98.02
X205.92Y-83.52
X209.5Y-108.52
X209.5Y-112.02
X211.0Y-76.77
X211.0Y-79.27
X213.5Y-92.52
X213.5Y-97.4
X216.08Y-83.52
X219.0Y-67.52
X220.547Y-93.912
X220.547Y-104.072
X221.5Y-67.52
X225.19Y-71.99
X225.19Y-74.53
X225.19Y-77.07
X225.19Y-79.61
X225.19Y-82.15
X225.19Y-84.69
X225.19Y-87.23
X225.19Y-89.77
X225.19Y-92.31
X225.19Y-94.85
X225.19Y-97.39
X225.19Y-99.93
X225.19Y-102.47
X225.19Y-105.01
X232.81Y-71.99
X232.81Y-74.53
X232.81Y-77.07
X232.81Y-79.61
X232.81Y-82.15
X232.81Y-84.69
X232.81Y-87.23
X232.81Y-89.77
X232.81Y-92.31
X232.81Y-94.85
X232.81Y-97.39
X232.81Y-99.93
X232.81Y-102.47
X232.81Y-105.01
T3
X214.7Y-71.02
X222.32Y-71.02
T4
X218.92Y-116.02
X220.5Y-74.52
X220.5Y-77.06
X220.5Y-79.6
X220.5Y-82.14
X220.5Y-84.68
X220.5Y-87.22
X220.5Y-89.76
X221.46Y-116.02
X224.0Y-116.02
X226.54Y-116.02
X229.08Y-116.02
X231.62Y-116.02
X234.16Y-116.02
X236.0Y-71.99
X236.0Y-74.53
X236.0Y-77.07
X236.0Y-79.61
X236.0Y-82.15
X236.0Y-84.69
X236.0Y-87.23
X236.0Y-89.77
X236.0Y-92.31
X236.0Y-94.85
X236.0Y-97.39
X236.0Y-99.93
X236.0Y-102.47
X236.0Y-105.01
X236.7Y-116.02
T5
X198.0Y-71.48
X198.0Y-74.02
T6
X193.42Y-109.45
X195.96Y-109.45
X198.5Y-109.45
X204.25Y-66.75
X204.25Y-71.25
X210.75Y-66.75
X210.75Y-71.25
T7
X192.5Y-116.02
X196.0Y-116.02
M30
