%TF.GenerationSoftware,KiCad,Pcbnew,10.0.6-1.fc44*%
%TF.CreationDate,2026-09-20T00:44:00+05:30*%
%TF.ProjectId,ArduCore,41726475-436f-4726-952e-6b696361645f,rev?*%
%TF.SameCoordinates,Original*%
%TF.FileFunction,Copper,L2,Bot*%
%TF.FilePolarity,Positive*%
%FSLAX46Y46*%
G04 Gerber Fmt 4.6, Leading zero omitted, Abs format (unit mm)*
G04 Created by KiCad (PCBNEW 10.0.6-1.fc44) date 2026-09-20 00:44:00*
%MOMM*%
%LPD*%
G01*
G04 APERTURE LIST*
G04 Aperture macros list*
%AMRoundRect*
0 Rectangle with rounded corners*
0 $1 Rounding radius*
0 $2 $3 $4 $5 $6 $7 $8 $9 X,Y pos of 4 corners*
0 Add a 4 corners polygon primitive as box body*
4,1,4,$2,$3,$4,$5,$6,$7,$8,$9,$2,$3,0*
0 Add four circle primitives for the rounded corners*
1,1,$1+$1,$2,$3*
1,1,$1+$1,$4,$5*
1,1,$1+$1,$6,$7*
1,1,$1+$1,$8,$9*
0 Add four rect primitives between the rounded corners*
20,1,$1+$1,$2,$3,$4,$5,0*
20,1,$1+$1,$4,$5,$6,$7,0*
20,1,$1+$1,$6,$7,$8,$9,0*
20,1,$1+$1,$8,$9,$2,$3,0*%
G04 Aperture macros list end*
%TA.AperFunction,ComponentPad*%
%ADD10RoundRect,0.250000X-0.550000X0.550000X-0.550000X-0.550000X0.550000X-0.550000X0.550000X0.550000X0*%
%TD*%
%TA.AperFunction,ComponentPad*%
%ADD11C,1.600000*%
%TD*%
%TA.AperFunction,ComponentPad*%
%ADD12O,1.600000X1.600000*%
%TD*%
%TA.AperFunction,ComponentPad*%
%ADD13C,1.879600*%
%TD*%
%TA.AperFunction,ComponentPad*%
%ADD14RoundRect,0.250000X-0.550000X-0.550000X0.550000X-0.550000X0.550000X0.550000X-0.550000X0.550000X0*%
%TD*%
%TA.AperFunction,ComponentPad*%
%ADD15R,2.800000X1.800000*%
%TD*%
%TA.AperFunction,ComponentPad*%
%ADD16O,2.800000X1.800000*%
%TD*%
%TA.AperFunction,ComponentPad*%
%ADD17C,1.500000*%
%TD*%
%TA.AperFunction,ComponentPad*%
%ADD18C,2.000000*%
%TD*%
%TA.AperFunction,ComponentPad*%
%ADD19R,1.700000X1.700000*%
%TD*%
%TA.AperFunction,ComponentPad*%
%ADD20C,1.700000*%
%TD*%
%TA.AperFunction,ComponentPad*%
%ADD21R,2.500000X2.500000*%
%TD*%
%TA.AperFunction,ComponentPad*%
%ADD22C,2.500000*%
%TD*%
%TA.AperFunction,ComponentPad*%
%ADD23R,1.905000X2.000000*%
%TD*%
%TA.AperFunction,ComponentPad*%
%ADD24O,1.905000X2.000000*%
%TD*%
%TA.AperFunction,ViaPad*%
%ADD25C,0.700000*%
%TD*%
%TA.AperFunction,ViaPad*%
%ADD26C,0.600000*%
%TD*%
%TA.AperFunction,Conductor*%
%ADD27C,0.500000*%
%TD*%
%TA.AperFunction,Conductor*%
%ADD28C,0.200000*%
%TD*%
G04 APERTURE END LIST*
D10*
%TO.P,C470uF_25V,1*%
%TO.N,VCC*%
X209500000Y-108520000D03*
D11*
%TO.P,C470uF_25V,2*%
%TO.N,GND*%
X209500000Y-112020000D03*
%TD*%
%TO.P,1OuH,1*%
%TO.N,VCC*%
X220547500Y-104072500D03*
D12*
%TO.P,1OuH,2*%
%TO.N,AVCC*%
X220547500Y-93912500D03*
%TD*%
D13*
%TO.P,D1,1,K_1*%
%TO.N,GND*%
X198000000Y-71480000D03*
%TO.P,D1,2,A_2*%
%TO.N,Net-(D1-A)*%
X198000000Y-74020000D03*
%TD*%
D14*
%TO.P,C470uF_25V,1*%
%TO.N,Net-(J4-Pin_1)*%
X193347349Y-98020000D03*
D11*
%TO.P,C470uF_25V,2*%
%TO.N,GND*%
X196847349Y-98020000D03*
%TD*%
D14*
%TO.P,Atmega328p,1,~{RESET}/PC6_1*%
%TO.N,Reset*%
X225190000Y-71990000D03*
D11*
%TO.P,Atmega328p,2,PD0_2*%
%TO.N,0*%
X225190000Y-74530000D03*
%TO.P,Atmega328p,3,PD1_3*%
%TO.N,1*%
X225190000Y-77070000D03*
%TO.P,Atmega328p,4,PD2_4*%
%TO.N,2*%
X225190000Y-79610000D03*
%TO.P,Atmega328p,5,PD3_5*%
%TO.N,3*%
X225190000Y-82150000D03*
%TO.P,Atmega328p,6,PD4_6*%
%TO.N,4*%
X225190000Y-84690000D03*
%TO.P,Atmega328p,7,VCC_7*%
%TO.N,VCC*%
X225190000Y-87230000D03*
%TO.P,Atmega328p,8,GND_8*%
%TO.N,GND*%
X225190000Y-89770000D03*
%TO.P,Atmega328p,9,XTAL1/PB6_9*%
%TO.N,Net-(U1-XTAL1{slash}PB6)*%
X225190000Y-92310000D03*
%TO.P,Atmega328p,10,XTAL2/PB7_10*%
%TO.N,Net-(U1-XTAL2{slash}PB7)*%
X225190000Y-94850000D03*
%TO.P,Atmega328p,11,PD5_11*%
%TO.N,5*%
X225190000Y-97390000D03*
%TO.P,Atmega328p,12,PD6_12*%
%TO.N,6*%
X225190000Y-99930000D03*
%TO.P,Atmega328p,13,PD7_13*%
%TO.N,7*%
X225190000Y-102470000D03*
%TO.P,Atmega328p,14,PB0_14*%
%TO.N,8*%
X225190000Y-105010000D03*
%TO.P,Atmega328p,15,PB1_15*%
%TO.N,9*%
X232810000Y-105010000D03*
%TO.P,Atmega328p,16,PB2_16*%
%TO.N,10*%
X232810000Y-102470000D03*
%TO.P,Atmega328p,17,PB3_17*%
%TO.N,11*%
X232810000Y-99930000D03*
%TO.P,Atmega328p,18,PB4_18*%
%TO.N,12*%
X232810000Y-97390000D03*
%TO.P,Atmega328p,19,PB5_19*%
%TO.N,13*%
X232810000Y-94850000D03*
%TO.P,Atmega328p,20,AVCC_20*%
%TO.N,AVCC*%
X232810000Y-92310000D03*
%TO.P,Atmega328p,21,AREF_21*%
%TO.N,AREF*%
X232810000Y-89770000D03*
%TO.P,Atmega328p,22,GND_22*%
%TO.N,GND*%
X232810000Y-87230000D03*
%TO.P,Atmega328p,23,PC0_23*%
%TO.N,A0*%
X232810000Y-84690000D03*
%TO.P,Atmega328p,24,PC1_24*%
%TO.N,A1*%
X232810000Y-82150000D03*
%TO.P,Atmega328p,25,PC2_25*%
%TO.N,A2*%
X232810000Y-79610000D03*
%TO.P,Atmega328p,26,PC3_26*%
%TO.N,A3*%
X232810000Y-77070000D03*
%TO.P,Atmega328p,27,PC4_27*%
%TO.N,A4*%
X232810000Y-74530000D03*
%TO.P,Atmega328p,28,PC5_28*%
%TO.N,A5*%
X232810000Y-71990000D03*
%TD*%
%TO.P,100nF,1*%
%TO.N,AVCC*%
X211000000Y-79270000D03*
%TO.P,100nF,2*%
%TO.N,GND*%
X211000000Y-76770000D03*
%TD*%
%TO.P,330 R,1*%
%TO.N,Net-(D1-A)*%
X205920000Y-83520000D03*
%TO.P,330 R,2*%
%TO.N,VCC*%
X216080000Y-83520000D03*
%TD*%
D15*
%TO.P,J1,1,Pin_1_1*%
%TO.N,0*%
X220500000Y-74520000D03*
D16*
%TO.P,J1,2,Pin_2_2*%
%TO.N,1*%
X220500000Y-77060000D03*
%TO.P,J1,3,Pin_3_3*%
%TO.N,2*%
X220500000Y-79600000D03*
%TO.P,J1,4,Pin_4_4*%
%TO.N,3*%
X220500000Y-82140000D03*
%TO.P,J1,5,Pin_5_5*%
%TO.N,4*%
X220500000Y-84680000D03*
%TO.P,J1,6,Pin_6_6*%
%TO.N,VCC*%
X220500000Y-87220000D03*
%TO.P,J1,7,Pin_7_7*%
%TO.N,GND*%
X220500000Y-89760000D03*
%TD*%
D13*
%TO.P,R1,1*%
%TO.N,VCC*%
X214700000Y-71020000D03*
%TO.P,R1,2*%
%TO.N,Reset*%
X222320000Y-71020000D03*
%TD*%
D17*
%TO.P,16 MHz (XTAL),1*%
%TO.N,Net-(U1-XTAL2{slash}PB7)*%
X213500000Y-97400000D03*
%TO.P,16 MHz (XTAL),2*%
%TO.N,Net-(U1-XTAL1{slash}PB6)*%
X213500000Y-92520000D03*
%TD*%
D18*
%TO.P,Reset,1*%
%TO.N,GND*%
X210750000Y-71250000D03*
X204250000Y-71250000D03*
%TO.P,Reset,2*%
%TO.N,Reset*%
X210750000Y-66750000D03*
X204250000Y-66750000D03*
%TD*%
D19*
%TO.P,J3,1,Pin_1_1*%
%TO.N,5*%
X218920000Y-116020000D03*
D20*
%TO.P,J3,2,Pin_2_2*%
%TO.N,6*%
X221460000Y-116020000D03*
%TO.P,J3,3,Pin_3_3*%
%TO.N,7*%
X224000000Y-116020000D03*
%TO.P,J3,4,Pin_4_4*%
%TO.N,8*%
X226540000Y-116020000D03*
%TO.P,J3,5,Pin_5_5*%
%TO.N,GND*%
X229080000Y-116020000D03*
%TO.P,J3,6,Pin_6_6*%
X231620000Y-116020000D03*
%TO.P,J3,7,Pin_7_7*%
%TO.N,VCC*%
X234160000Y-116020000D03*
%TO.P,J3,8,Pin_8_8*%
X236700000Y-116020000D03*
%TD*%
D21*
%TO.P,J4,1,Pin_1_1*%
%TO.N,Net-(J4-Pin_1)*%
X192500000Y-116020000D03*
D22*
%TO.P,J4,2,Pin_2_2*%
%TO.N,GND*%
X196000000Y-116020000D03*
%TD*%
D23*
%TO.P,U2,1,IN_1*%
%TO.N,Net-(J4-Pin_1)*%
X193420000Y-109450000D03*
D24*
%TO.P,U2,2*%
%TO.N,GND*%
X195960000Y-109450000D03*
%TO.P,U2,3,OUT_3*%
%TO.N,VCC*%
X198500000Y-109450000D03*
%TD*%
D19*
%TO.P,J2,1,Pin_1_1*%
%TO.N,A5*%
X236000000Y-71990000D03*
D20*
%TO.P,J2,2,Pin_2_2*%
%TO.N,A4*%
X236000000Y-74530000D03*
%TO.P,J2,3,Pin_3_3*%
%TO.N,A3*%
X236000000Y-77070000D03*
%TO.P,J2,4,Pin_4_4*%
%TO.N,A2*%
X236000000Y-79610000D03*
%TO.P,J2,5,Pin_5_5*%
%TO.N,A1*%
X236000000Y-82150000D03*
%TO.P,J2,6,Pin_6_6*%
%TO.N,A0*%
X236000000Y-84690000D03*
%TO.P,J2,7,Pin_7_7*%
%TO.N,GND*%
X236000000Y-87230000D03*
%TO.P,J2,8,Pin_8_8*%
%TO.N,AREF*%
X236000000Y-89770000D03*
%TO.P,J2,9,Pin_9_9*%
%TO.N,AVCC*%
X236000000Y-92310000D03*
%TO.P,J2,10,Pin_10_10*%
%TO.N,13*%
X236000000Y-94850000D03*
%TO.P,J2,11,Pin_11_11*%
%TO.N,12*%
X236000000Y-97390000D03*
%TO.P,J2,12,Pin_12_12*%
%TO.N,11*%
X236000000Y-99930000D03*
%TO.P,J2,13,Pin_13_13*%
%TO.N,10*%
X236000000Y-102470000D03*
%TO.P,J2,14,Pin_14_14*%
%TO.N,9*%
X236000000Y-105010000D03*
%TD*%
D11*
%TO.P,100nF,1*%
%TO.N,Reset*%
X221500000Y-67520000D03*
%TO.P,100nF,2*%
%TO.N,GND*%
X219000000Y-67520000D03*
%TD*%
D25*
%TO.N,VCC*%
X234160000Y-113520000D03*
D26*
X207500000Y-109520000D03*
D25*
X214700000Y-72720000D03*
X200500000Y-109520000D03*
D26*
X216000000Y-78520000D03*
D25*
%TO.N,GND*%
X218500000Y-86020000D03*
X196847349Y-100520000D03*
D26*
X196000000Y-106020000D03*
D25*
X229080000Y-113520000D03*
X196000000Y-111020000D03*
X198500000Y-116020000D03*
X200500000Y-71480000D03*
X219136439Y-88384803D03*
X212500000Y-69520000D03*
X217000000Y-69520000D03*
X196000000Y-112520000D03*
D26*
X207500000Y-114020000D03*
D25*
%TO.N,AVCC*%
X227949669Y-93590331D03*
D26*
X211000000Y-81520000D03*
D25*
X222047500Y-93600000D03*
X219500000Y-93020000D03*
%TO.N,Net-(D1-A)*%
X200500000Y-74020000D03*
%TO.N,Net-(J4-Pin_1)*%
X193500000Y-106020000D03*
X193460000Y-100520000D03*
X192500000Y-112520000D03*
X192500000Y-111020000D03*
D26*
%TO.N,Reset*%
X212500000Y-66750000D03*
X220400000Y-66420000D03*
D25*
%TO.N,5*%
X219000000Y-113520000D03*
X223511092Y-98531092D03*
%TO.N,6*%
X224000000Y-101020000D03*
X222480000Y-113500000D03*
%TO.N,7*%
X224000000Y-113520000D03*
X224000000Y-104020000D03*
%TO.N,8*%
X226500000Y-106520000D03*
X226500000Y-113520000D03*
%TD*%
%TO.N,VCC*%
D27*
X214700000Y-72720000D02*
X214700000Y-75220000D01*
X214700000Y-75220000D02*
X216000000Y-76520000D01*
X230500000Y-92540000D02*
X230500000Y-105500000D01*
X230500000Y-105500000D02*
X234160000Y-109160000D01*
X225190000Y-87230000D02*
X230500000Y-92540000D01*
X216000000Y-76520000D02*
X216000000Y-78520000D01*
X234160000Y-109160000D02*
X234160000Y-113520000D01*
X200500000Y-109520000D02*
X207500000Y-109520000D01*
%TO.N,GND*%
X196000000Y-106020000D02*
X196847349Y-105172651D01*
X218500000Y-87740000D02*
X218500000Y-86020000D01*
X216500000Y-69020000D02*
X213000000Y-69020000D01*
X198500000Y-116020000D02*
X205500000Y-116020000D01*
X196000000Y-112520000D02*
X196000000Y-111020000D01*
X226250000Y-89770000D02*
X225190000Y-89770000D01*
X213000000Y-69020000D02*
X212500000Y-69520000D01*
X219136439Y-88376439D02*
X218500000Y-87740000D01*
X217000000Y-69520000D02*
X216500000Y-69020000D01*
X217000000Y-69520000D02*
X219000000Y-67520000D01*
X205500000Y-116020000D02*
X207500000Y-114020000D01*
X219136439Y-88384803D02*
X219136439Y-88376439D01*
X196847349Y-105172651D02*
X196847349Y-100520000D01*
X198000000Y-71480000D02*
X200500000Y-71480000D01*
X229080000Y-113520000D02*
X229080000Y-92600000D01*
X229080000Y-92600000D02*
X226250000Y-89770000D01*
%TO.N,AVCC*%
X226940000Y-93600000D02*
X222047500Y-93600000D01*
X227949669Y-93590331D02*
X226949669Y-93590331D01*
X211000000Y-83207766D02*
X219500000Y-91707766D01*
X219500000Y-91707766D02*
X219500000Y-93020000D01*
X226949669Y-93590331D02*
X226940000Y-93600000D01*
X211000000Y-81520000D02*
X211000000Y-83207766D01*
%TO.N,Net-(D1-A)*%
X198000000Y-74020000D02*
X200500000Y-74020000D01*
%TO.N,Net-(J4-Pin_1)*%
X193500000Y-106020000D02*
X193500000Y-100560000D01*
X193460000Y-109465000D02*
X193460000Y-109560000D01*
X193500000Y-98172651D02*
X193347349Y-98020000D01*
X192500000Y-112520000D02*
X192500000Y-111020000D01*
D28*
X193500000Y-100560000D02*
X193460000Y-100520000D01*
%TO.N,Reset*%
X212750000Y-66750000D02*
X214000000Y-65500000D01*
X212500000Y-66750000D02*
X212750000Y-66750000D01*
X214000000Y-65500000D02*
X219480000Y-65500000D01*
X219480000Y-65500000D02*
X220400000Y-66420000D01*
%TO.N,5*%
X219052348Y-113467652D02*
X219052348Y-103742096D01*
X219002348Y-103017652D02*
X223488908Y-98531092D01*
X223488908Y-98531092D02*
X223511092Y-98531092D01*
X219002348Y-103692096D02*
X219002348Y-103017652D01*
X219000000Y-113520000D02*
X219052348Y-113467652D01*
X219052348Y-103742096D02*
X219002348Y-103692096D01*
%TO.N,6*%
X221460000Y-116020000D02*
X221500000Y-115980000D01*
X223000000Y-102020000D02*
X224000000Y-101020000D01*
X223000000Y-112980000D02*
X223000000Y-102020000D01*
X222480000Y-113500000D02*
X223000000Y-112980000D01*
%TO.N,7*%
X224000000Y-113520000D02*
X224000000Y-104020000D01*
%TO.N,8*%
X226500000Y-115980000D02*
X226540000Y-116020000D01*
X226500000Y-113520000D02*
X226500000Y-106520000D01*
%TD*%
M02*
