%TF.GenerationSoftware,KiCad,Pcbnew,10.0.6-1.fc44*%
%TF.CreationDate,2026-09-20T00:44:00+05:30*%
%TF.ProjectId,ArduCore,41726475-436f-4726-952e-6b696361645f,rev?*%
%TF.SameCoordinates,Original*%
%TF.FileFunction,Legend,Top*%
%TF.FilePolarity,Positive*%
%FSLAX46Y46*%
G04 Gerber Fmt 4.6, Leading zero omitted, Abs format (unit mm)*
G04 Created by KiCad (PCBNEW 10.0.6-1.fc44) date 2026-09-20 00:44:00*
%MOMM*%
%LPD*%
G01*
G04 APERTURE LIST*
%ADD10C,0.125000*%
%ADD11C,0.150000*%
%ADD12C,0.120000*%
%ADD13C,0.254000*%
%ADD14C,0.203200*%
G04 APERTURE END LIST*
D10*
G36*
X215805024Y-86881210D02*
G01*
X215526404Y-87850000D01*
X215275811Y-87850000D01*
X214987421Y-86881210D01*
X215207178Y-86881210D01*
X215404588Y-87679213D01*
X215594975Y-86881210D01*
X215805024Y-86881210D01*
G37*
G36*
X216270856Y-86858801D02*
G01*
X216358247Y-86865667D01*
X216429003Y-86884691D01*
X216494309Y-86916688D01*
X216560650Y-86963825D01*
X216458435Y-87082772D01*
X216399701Y-87043723D01*
X216341385Y-87021477D01*
X216282091Y-87014200D01*
X216232343Y-87019633D01*
X216189218Y-87035334D01*
X216151236Y-87061339D01*
X216117533Y-87098892D01*
X216093288Y-87141705D01*
X216074189Y-87197962D01*
X216061394Y-87270878D01*
X216056655Y-87364200D01*
X216061353Y-87455131D01*
X216074082Y-87526713D01*
X216093173Y-87582437D01*
X216117533Y-87625296D01*
X216151230Y-87662768D01*
X216189411Y-87688781D01*
X216232972Y-87704527D01*
X216283435Y-87709987D01*
X216336261Y-87704786D01*
X216382841Y-87689715D01*
X216427303Y-87665886D01*
X216476692Y-87631585D01*
X216571885Y-87750593D01*
X216514865Y-87798415D01*
X216443719Y-87838093D01*
X216391882Y-87856933D01*
X216335907Y-87868458D01*
X216275069Y-87872409D01*
X216189922Y-87865554D01*
X216114424Y-87845778D01*
X216046885Y-87813607D01*
X215987133Y-87768972D01*
X215936406Y-87711917D01*
X215894234Y-87640744D01*
X215864901Y-87562810D01*
X215846262Y-87471441D01*
X215839645Y-87364200D01*
X215846361Y-87259911D01*
X215865409Y-87169879D01*
X215895638Y-87091931D01*
X215938608Y-87020630D01*
X215989795Y-86963316D01*
X216049633Y-86918335D01*
X216117121Y-86885504D01*
X216190396Y-86865610D01*
X216270856Y-86858801D01*
G37*
G36*
X217041687Y-86858801D02*
G01*
X217129078Y-86865667D01*
X217199834Y-86884691D01*
X217265139Y-86916688D01*
X217331481Y-86963825D01*
X217229265Y-87082772D01*
X217170532Y-87043723D01*
X217112215Y-87021477D01*
X217052922Y-87014200D01*
X217003173Y-87019633D01*
X216960048Y-87035334D01*
X216922066Y-87061339D01*
X216888363Y-87098892D01*
X216864118Y-87141705D01*
X216845020Y-87197962D01*
X216832225Y-87270878D01*
X216827486Y-87364200D01*
X216832183Y-87455131D01*
X216844913Y-87526713D01*
X216864003Y-87582437D01*
X216888363Y-87625296D01*
X216922060Y-87662768D01*
X216960241Y-87688781D01*
X217003802Y-87704527D01*
X217054265Y-87709987D01*
X217107092Y-87704786D01*
X217153672Y-87689715D01*
X217198134Y-87665886D01*
X217247522Y-87631585D01*
X217342716Y-87750593D01*
X217285695Y-87798415D01*
X217214549Y-87838093D01*
X217162713Y-87856933D01*
X217106738Y-87868458D01*
X217045900Y-87872409D01*
X216960753Y-87865554D01*
X216885255Y-87845778D01*
X216817716Y-87813607D01*
X216757964Y-87768972D01*
X216707236Y-87711917D01*
X216665064Y-87640744D01*
X216635732Y-87562810D01*
X216617092Y-87471441D01*
X216610476Y-87364200D01*
X216617192Y-87259911D01*
X216636240Y-87169879D01*
X216666468Y-87091931D01*
X216709438Y-87020630D01*
X216760626Y-86963316D01*
X216820464Y-86918335D01*
X216887951Y-86885504D01*
X216961226Y-86865610D01*
X217041687Y-86858801D01*
G37*
G36*
X216006803Y-89358801D02*
G01*
X216071608Y-89362358D01*
X216129396Y-89372564D01*
X216181071Y-89388904D01*
X216254325Y-89425209D01*
X216323220Y-89475000D01*
X216215387Y-89586985D01*
X216163378Y-89551978D01*
X216118117Y-89529588D01*
X216070665Y-89516122D01*
X216015230Y-89511392D01*
X215961928Y-89517004D01*
X215915285Y-89533261D01*
X215873839Y-89560170D01*
X215836688Y-89598892D01*
X215809260Y-89643551D01*
X215788007Y-89700877D01*
X215773950Y-89773756D01*
X215768789Y-89865605D01*
X215773040Y-89964477D01*
X215784352Y-90039645D01*
X215800884Y-90095672D01*
X215821301Y-90136531D01*
X215850866Y-90172061D01*
X215886912Y-90197222D01*
X215930713Y-90212855D01*
X215984394Y-90218414D01*
X216036695Y-90214399D01*
X216084506Y-90202681D01*
X216128620Y-90183426D01*
X216128620Y-89946816D01*
X215992821Y-89946816D01*
X215971816Y-89796973D01*
X216328777Y-89796973D01*
X216328777Y-90274406D01*
X216250494Y-90315419D01*
X216165683Y-90346519D01*
X216077468Y-90365965D01*
X215988607Y-90372409D01*
X215902134Y-90366577D01*
X215828208Y-90350090D01*
X215764840Y-90323981D01*
X215710412Y-90288608D01*
X215663764Y-90243632D01*
X215626485Y-90191544D01*
X215596183Y-90129385D01*
X215573224Y-90055494D01*
X215558459Y-89967865D01*
X215553183Y-89864200D01*
X215560359Y-89760141D01*
X215580784Y-89669864D01*
X215613389Y-89591198D01*
X215659155Y-89519750D01*
X215713338Y-89462410D01*
X215776482Y-89417602D01*
X215847098Y-89385184D01*
X215923431Y-89365524D01*
X216006803Y-89358801D01*
G37*
G36*
X217229849Y-90350000D02*
G01*
X216965273Y-90350000D01*
X216657283Y-89581428D01*
X216677555Y-89768274D01*
X216683181Y-89859531D01*
X216685249Y-89973377D01*
X216685249Y-90350000D01*
X216499075Y-90350000D01*
X216499075Y-89381210D01*
X216758033Y-89381210D01*
X217071641Y-90151186D01*
X217050320Y-89966976D01*
X217043675Y-89806803D01*
X217043675Y-89381210D01*
X217229849Y-89381210D01*
X217229849Y-90350000D01*
G37*
G36*
X217780094Y-89385893D02*
G01*
X217861400Y-89399222D01*
X217932792Y-89420337D01*
X217995535Y-89448696D01*
X218050689Y-89484098D01*
X218096137Y-89527559D01*
X218133167Y-89583979D01*
X218161640Y-89655974D01*
X218180367Y-89747042D01*
X218187220Y-89861392D01*
X218180622Y-89972966D01*
X218162466Y-90063273D01*
X218134660Y-90135973D01*
X218098282Y-90194134D01*
X218053497Y-90240090D01*
X217998724Y-90278653D01*
X217938010Y-90309031D01*
X217870548Y-90331302D01*
X217795332Y-90345174D01*
X217711191Y-90350000D01*
X217434036Y-90350000D01*
X217434036Y-90198813D01*
X217639811Y-90198813D01*
X217723831Y-90198813D01*
X217782551Y-90193755D01*
X217831682Y-90179491D01*
X217873041Y-90156734D01*
X217907929Y-90125296D01*
X217933304Y-90087515D01*
X217953705Y-90034133D01*
X217967713Y-89960582D01*
X217973019Y-89861392D01*
X217968673Y-89773522D01*
X217957099Y-89706798D01*
X217940108Y-89657021D01*
X217914329Y-89611664D01*
X217885209Y-89579565D01*
X217852608Y-89558286D01*
X217815338Y-89544398D01*
X217771413Y-89535546D01*
X217719617Y-89532397D01*
X217639811Y-89532397D01*
X217639811Y-90198813D01*
X217434036Y-90198813D01*
X217434036Y-89381210D01*
X217687438Y-89381210D01*
X217780094Y-89385893D01*
G37*
G36*
X216948273Y-73885893D02*
G01*
X217029579Y-73899222D01*
X217100971Y-73920337D01*
X217163714Y-73948696D01*
X217218867Y-73984098D01*
X217264316Y-74027559D01*
X217301346Y-74083979D01*
X217329819Y-74155974D01*
X217348546Y-74247042D01*
X217355399Y-74361392D01*
X217348801Y-74472966D01*
X217330645Y-74563273D01*
X217302839Y-74635973D01*
X217266461Y-74694134D01*
X217221676Y-74740090D01*
X217166903Y-74778653D01*
X217106188Y-74809031D01*
X217038727Y-74831302D01*
X216963511Y-74845174D01*
X216879370Y-74850000D01*
X216602215Y-74850000D01*
X216602215Y-74698813D01*
X216807990Y-74698813D01*
X216892009Y-74698813D01*
X216950729Y-74693755D01*
X216999861Y-74679491D01*
X217041220Y-74656734D01*
X217076107Y-74625296D01*
X217101483Y-74587515D01*
X217121883Y-74534133D01*
X217135892Y-74460582D01*
X217141198Y-74361392D01*
X217136852Y-74273522D01*
X217125278Y-74206798D01*
X217108286Y-74157021D01*
X217082508Y-74111664D01*
X217053387Y-74079565D01*
X217020786Y-74058286D01*
X216983517Y-74044398D01*
X216939591Y-74035546D01*
X216887796Y-74032397D01*
X216807990Y-74032397D01*
X216807990Y-74698813D01*
X216602215Y-74698813D01*
X216602215Y-73881210D01*
X216855617Y-73881210D01*
X216948273Y-73885893D01*
G37*
G36*
X217980933Y-73865810D02*
G01*
X218056815Y-73885891D01*
X218123543Y-73918335D01*
X218182281Y-73963331D01*
X218231579Y-74020397D01*
X218271920Y-74091198D01*
X218299747Y-74168489D01*
X218317466Y-74259167D01*
X218323761Y-74365605D01*
X218317516Y-74470116D01*
X218299844Y-74560187D01*
X218271920Y-74637936D01*
X218231570Y-74709213D01*
X218182266Y-74766746D01*
X218123543Y-74812203D01*
X218056774Y-74845028D01*
X217980895Y-74865327D01*
X217893954Y-74872409D01*
X217806965Y-74865420D01*
X217730823Y-74845369D01*
X217663633Y-74812936D01*
X217604515Y-74767830D01*
X217554977Y-74710528D01*
X217514523Y-74639340D01*
X217486671Y-74561587D01*
X217469001Y-74471079D01*
X217462744Y-74365605D01*
X217679754Y-74365605D01*
X217684094Y-74461793D01*
X217695726Y-74536020D01*
X217712893Y-74592370D01*
X217734342Y-74634394D01*
X217765010Y-74671360D01*
X217801030Y-74697140D01*
X217843417Y-74712891D01*
X217893954Y-74718414D01*
X217945295Y-74712877D01*
X217987876Y-74697170D01*
X218023601Y-74671608D01*
X218053567Y-74635127D01*
X218074373Y-74593530D01*
X218091108Y-74537297D01*
X218102493Y-74462735D01*
X218106751Y-74365605D01*
X218102491Y-74268436D01*
X218091105Y-74193867D01*
X218074370Y-74137650D01*
X218053567Y-74096083D01*
X218023601Y-74059602D01*
X217987876Y-74034040D01*
X217945295Y-74018332D01*
X217893954Y-74012796D01*
X217842698Y-74018357D01*
X217800010Y-74034165D01*
X217764023Y-74059948D01*
X217733670Y-74096816D01*
X217712506Y-74138766D01*
X217695547Y-74195082D01*
X217684046Y-74269331D01*
X217679754Y-74365605D01*
X217462744Y-74365605D01*
X217469047Y-74262087D01*
X217486924Y-74172479D01*
X217515256Y-74094740D01*
X217556053Y-74023412D01*
X217605822Y-73965615D01*
X217665038Y-73919740D01*
X217732297Y-73886424D01*
X217807990Y-73865923D01*
X217893954Y-73858801D01*
X217980933Y-73865810D01*
G37*
G36*
X216948273Y-76385893D02*
G01*
X217029579Y-76399222D01*
X217100971Y-76420337D01*
X217163714Y-76448696D01*
X217218867Y-76484098D01*
X217264316Y-76527559D01*
X217301346Y-76583979D01*
X217329819Y-76655974D01*
X217348546Y-76747042D01*
X217355399Y-76861392D01*
X217348801Y-76972966D01*
X217330645Y-77063273D01*
X217302839Y-77135973D01*
X217266461Y-77194134D01*
X217221676Y-77240090D01*
X217166903Y-77278653D01*
X217106188Y-77309031D01*
X217038727Y-77331302D01*
X216963511Y-77345174D01*
X216879370Y-77350000D01*
X216602215Y-77350000D01*
X216602215Y-77198813D01*
X216807990Y-77198813D01*
X216892009Y-77198813D01*
X216950729Y-77193755D01*
X216999861Y-77179491D01*
X217041220Y-77156734D01*
X217076107Y-77125296D01*
X217101483Y-77087515D01*
X217121883Y-77034133D01*
X217135892Y-76960582D01*
X217141198Y-76861392D01*
X217136852Y-76773522D01*
X217125278Y-76706798D01*
X217108286Y-76657021D01*
X217082508Y-76611664D01*
X217053387Y-76579565D01*
X217020786Y-76558286D01*
X216983517Y-76544398D01*
X216939591Y-76535546D01*
X216887796Y-76532397D01*
X216807990Y-76532397D01*
X216807990Y-77198813D01*
X216602215Y-77198813D01*
X216602215Y-76381210D01*
X216855617Y-76381210D01*
X216948273Y-76385893D01*
G37*
G36*
X217904823Y-76406428D02*
G01*
X217904823Y-77350000D01*
X217710223Y-77350000D01*
X217710223Y-76602372D01*
X217502983Y-76729806D01*
X217416215Y-76595411D01*
X217729823Y-76406428D01*
X217904823Y-76406428D01*
G37*
G36*
X216948273Y-78885893D02*
G01*
X217029579Y-78899222D01*
X217100971Y-78920337D01*
X217163714Y-78948696D01*
X217218867Y-78984098D01*
X217264316Y-79027559D01*
X217301346Y-79083979D01*
X217329819Y-79155974D01*
X217348546Y-79247042D01*
X217355399Y-79361392D01*
X217348801Y-79472966D01*
X217330645Y-79563273D01*
X217302839Y-79635973D01*
X217266461Y-79694134D01*
X217221676Y-79740090D01*
X217166903Y-79778653D01*
X217106188Y-79809031D01*
X217038727Y-79831302D01*
X216963511Y-79845174D01*
X216879370Y-79850000D01*
X216602215Y-79850000D01*
X216602215Y-79698813D01*
X216807990Y-79698813D01*
X216892009Y-79698813D01*
X216950729Y-79693755D01*
X216999861Y-79679491D01*
X217041220Y-79656734D01*
X217076107Y-79625296D01*
X217101483Y-79587515D01*
X217121883Y-79534133D01*
X217135892Y-79460582D01*
X217141198Y-79361392D01*
X217136852Y-79273522D01*
X217125278Y-79206798D01*
X217108286Y-79157021D01*
X217082508Y-79111664D01*
X217053387Y-79079565D01*
X217020786Y-79058286D01*
X216983517Y-79044398D01*
X216939591Y-79035546D01*
X216887796Y-79032397D01*
X216807990Y-79032397D01*
X216807990Y-79698813D01*
X216602215Y-79698813D01*
X216602215Y-78881210D01*
X216855617Y-78881210D01*
X216948273Y-78885893D01*
G37*
G36*
X217704788Y-78888171D02*
G01*
X217769333Y-78892436D01*
X217825359Y-78904566D01*
X217874171Y-78923892D01*
X217918844Y-78951147D01*
X217954661Y-78983285D01*
X217982676Y-79020551D01*
X218003238Y-79062449D01*
X218015599Y-79107207D01*
X218019801Y-79155617D01*
X218016156Y-79206241D01*
X218005246Y-79255539D01*
X217986889Y-79303995D01*
X217945501Y-79375477D01*
X217874842Y-79465012D01*
X217785399Y-79559842D01*
X217644583Y-79696004D01*
X218040806Y-79696004D01*
X218018396Y-79850000D01*
X217417803Y-79850000D01*
X217417803Y-79705774D01*
X217581199Y-79539885D01*
X217672609Y-79442602D01*
X217743272Y-79357330D01*
X217783190Y-79295629D01*
X217801286Y-79254555D01*
X217811872Y-79213653D01*
X217815369Y-79172409D01*
X217811166Y-79133703D01*
X217799379Y-79102531D01*
X217780382Y-79077215D01*
X217755096Y-79058153D01*
X217724353Y-79046397D01*
X217686592Y-79042227D01*
X217637016Y-79048146D01*
X217594207Y-79065308D01*
X217554797Y-79093926D01*
X217508784Y-79141573D01*
X217389776Y-79046379D01*
X217442090Y-78988323D01*
X217498910Y-78944537D01*
X217560854Y-78913532D01*
X217628995Y-78894663D01*
X217704788Y-78888171D01*
G37*
G36*
X216948273Y-81385893D02*
G01*
X217029579Y-81399222D01*
X217100971Y-81420337D01*
X217163714Y-81448696D01*
X217218867Y-81484098D01*
X217264316Y-81527559D01*
X217301346Y-81583979D01*
X217329819Y-81655974D01*
X217348546Y-81747042D01*
X217355399Y-81861392D01*
X217348801Y-81972966D01*
X217330645Y-82063273D01*
X217302839Y-82135973D01*
X217266461Y-82194134D01*
X217221676Y-82240090D01*
X217166903Y-82278653D01*
X217106188Y-82309031D01*
X217038727Y-82331302D01*
X216963511Y-82345174D01*
X216879370Y-82350000D01*
X216602215Y-82350000D01*
X216602215Y-82198813D01*
X216807990Y-82198813D01*
X216892009Y-82198813D01*
X216950729Y-82193755D01*
X216999861Y-82179491D01*
X217041220Y-82156734D01*
X217076107Y-82125296D01*
X217101483Y-82087515D01*
X217121883Y-82034133D01*
X217135892Y-81960582D01*
X217141198Y-81861392D01*
X217136852Y-81773522D01*
X217125278Y-81706798D01*
X217108286Y-81657021D01*
X217082508Y-81611664D01*
X217053387Y-81579565D01*
X217020786Y-81558286D01*
X216983517Y-81544398D01*
X216939591Y-81535546D01*
X216887796Y-81532397D01*
X216807990Y-81532397D01*
X216807990Y-82198813D01*
X216602215Y-82198813D01*
X216602215Y-81381210D01*
X216855617Y-81381210D01*
X216948273Y-81385893D01*
G37*
G36*
X217710223Y-81388171D02*
G01*
X217774045Y-81391974D01*
X217828905Y-81402721D01*
X217876125Y-81419678D01*
X217919699Y-81444008D01*
X217954287Y-81472688D01*
X217981088Y-81505835D01*
X218000905Y-81543555D01*
X218012777Y-81583880D01*
X218016809Y-81627590D01*
X218011064Y-81682709D01*
X217994635Y-81729504D01*
X217967777Y-81769740D01*
X217932061Y-81803021D01*
X217887368Y-81829896D01*
X217832039Y-81850218D01*
X217893052Y-81862633D01*
X217944252Y-81885533D01*
X217987438Y-81918789D01*
X218013030Y-81949921D01*
X218031707Y-81986781D01*
X218043469Y-82030506D01*
X218047644Y-82082615D01*
X218042958Y-82135557D01*
X218029191Y-82184264D01*
X218006306Y-82229649D01*
X217975196Y-82269741D01*
X217935256Y-82304436D01*
X217885223Y-82333941D01*
X217830736Y-82354739D01*
X217768214Y-82367812D01*
X217696240Y-82372409D01*
X217616835Y-82366372D01*
X217547210Y-82349065D01*
X217485738Y-82321150D01*
X217431153Y-82282537D01*
X217382632Y-82232397D01*
X217490404Y-82128777D01*
X217539393Y-82171004D01*
X217584193Y-82197409D01*
X217632061Y-82213069D01*
X217685005Y-82218414D01*
X217732082Y-82213660D01*
X217769926Y-82200389D01*
X217800532Y-82179213D01*
X217823737Y-82150525D01*
X217838088Y-82114810D01*
X217843213Y-82069975D01*
X217838028Y-82021314D01*
X217824124Y-81986064D01*
X217802608Y-81960799D01*
X217773585Y-81943225D01*
X217734062Y-81931574D01*
X217680853Y-81927215D01*
X217603855Y-81927215D01*
X217627608Y-81787203D01*
X217679448Y-81787203D01*
X217721990Y-81782968D01*
X217756399Y-81771126D01*
X217784412Y-81752215D01*
X217805751Y-81726513D01*
X217818915Y-81694481D01*
X217823613Y-81654213D01*
X217819380Y-81619454D01*
X217807440Y-81591532D01*
X217787892Y-81568850D01*
X217762453Y-81552292D01*
X217730609Y-81541799D01*
X217690622Y-81538014D01*
X217639028Y-81543015D01*
X217592620Y-81557615D01*
X217549347Y-81581998D01*
X217504448Y-81619225D01*
X217405041Y-81511392D01*
X217459817Y-81466389D01*
X217517136Y-81432143D01*
X217577495Y-81407855D01*
X217641578Y-81393165D01*
X217710223Y-81388171D01*
G37*
G36*
X216948273Y-84385893D02*
G01*
X217029579Y-84399222D01*
X217100971Y-84420337D01*
X217163714Y-84448696D01*
X217218867Y-84484098D01*
X217264316Y-84527559D01*
X217301346Y-84583979D01*
X217329819Y-84655974D01*
X217348546Y-84747042D01*
X217355399Y-84861392D01*
X217348801Y-84972966D01*
X217330645Y-85063273D01*
X217302839Y-85135973D01*
X217266461Y-85194134D01*
X217221676Y-85240090D01*
X217166903Y-85278653D01*
X217106188Y-85309031D01*
X217038727Y-85331302D01*
X216963511Y-85345174D01*
X216879370Y-85350000D01*
X216602215Y-85350000D01*
X216602215Y-85198813D01*
X216807990Y-85198813D01*
X216892009Y-85198813D01*
X216950729Y-85193755D01*
X216999861Y-85179491D01*
X217041220Y-85156734D01*
X217076107Y-85125296D01*
X217101483Y-85087515D01*
X217121883Y-85034133D01*
X217135892Y-84960582D01*
X217141198Y-84861392D01*
X217136852Y-84773522D01*
X217125278Y-84706798D01*
X217108286Y-84657021D01*
X217082508Y-84611664D01*
X217053387Y-84579565D01*
X217020786Y-84558286D01*
X216983517Y-84544398D01*
X216939591Y-84535546D01*
X216887796Y-84532397D01*
X216807990Y-84532397D01*
X216807990Y-85198813D01*
X216602215Y-85198813D01*
X216602215Y-84381210D01*
X216855617Y-84381210D01*
X216948273Y-84385893D01*
G37*
G36*
X218157187Y-84988825D02*
G01*
X218157187Y-85140012D01*
X218046545Y-85140012D01*
X218046545Y-85350000D01*
X217853349Y-85350000D01*
X217851945Y-85140012D01*
X217452974Y-85140012D01*
X217452974Y-85005617D01*
X217724572Y-84385423D01*
X217892550Y-84448377D01*
X217658749Y-84988825D01*
X217854754Y-84988825D01*
X217875758Y-84757772D01*
X218046545Y-84757772D01*
X218046545Y-84988825D01*
X218157187Y-84988825D01*
G37*
G36*
X229506803Y-118358801D02*
G01*
X229571608Y-118362358D01*
X229629396Y-118372564D01*
X229681071Y-118388904D01*
X229754325Y-118425209D01*
X229823220Y-118475000D01*
X229715387Y-118586985D01*
X229663378Y-118551978D01*
X229618117Y-118529588D01*
X229570665Y-118516122D01*
X229515230Y-118511392D01*
X229461928Y-118517004D01*
X229415285Y-118533261D01*
X229373839Y-118560170D01*
X229336688Y-118598892D01*
X229309260Y-118643551D01*
X229288007Y-118700877D01*
X229273950Y-118773756D01*
X229268789Y-118865605D01*
X229273040Y-118964477D01*
X229284352Y-119039645D01*
X229300884Y-119095672D01*
X229321301Y-119136531D01*
X229350866Y-119172061D01*
X229386912Y-119197222D01*
X229430713Y-119212855D01*
X229484394Y-119218414D01*
X229536695Y-119214399D01*
X229584506Y-119202681D01*
X229628620Y-119183426D01*
X229628620Y-118946816D01*
X229492821Y-118946816D01*
X229471816Y-118796973D01*
X229828777Y-118796973D01*
X229828777Y-119274406D01*
X229750494Y-119315419D01*
X229665683Y-119346519D01*
X229577468Y-119365965D01*
X229488607Y-119372409D01*
X229402134Y-119366577D01*
X229328208Y-119350090D01*
X229264840Y-119323981D01*
X229210412Y-119288608D01*
X229163764Y-119243632D01*
X229126485Y-119191544D01*
X229096183Y-119129385D01*
X229073224Y-119055494D01*
X229058459Y-118967865D01*
X229053183Y-118864200D01*
X229060359Y-118760141D01*
X229080784Y-118669864D01*
X229113389Y-118591198D01*
X229159155Y-118519750D01*
X229213338Y-118462410D01*
X229276482Y-118417602D01*
X229347098Y-118385184D01*
X229423431Y-118365524D01*
X229506803Y-118358801D01*
G37*
G36*
X230729849Y-119350000D02*
G01*
X230465273Y-119350000D01*
X230157283Y-118581428D01*
X230177555Y-118768274D01*
X230183181Y-118859531D01*
X230185249Y-118973377D01*
X230185249Y-119350000D01*
X229999075Y-119350000D01*
X229999075Y-118381210D01*
X230258033Y-118381210D01*
X230571641Y-119151186D01*
X230550320Y-118966976D01*
X230543675Y-118806803D01*
X230543675Y-118381210D01*
X230729849Y-118381210D01*
X230729849Y-119350000D01*
G37*
G36*
X231280094Y-118385893D02*
G01*
X231361400Y-118399222D01*
X231432792Y-118420337D01*
X231495535Y-118448696D01*
X231550689Y-118484098D01*
X231596137Y-118527559D01*
X231633167Y-118583979D01*
X231661640Y-118655974D01*
X231680367Y-118747042D01*
X231687220Y-118861392D01*
X231680622Y-118972966D01*
X231662466Y-119063273D01*
X231634660Y-119135973D01*
X231598282Y-119194134D01*
X231553497Y-119240090D01*
X231498724Y-119278653D01*
X231438010Y-119309031D01*
X231370548Y-119331302D01*
X231295332Y-119345174D01*
X231211191Y-119350000D01*
X230934036Y-119350000D01*
X230934036Y-119198813D01*
X231139811Y-119198813D01*
X231223831Y-119198813D01*
X231282551Y-119193755D01*
X231331682Y-119179491D01*
X231373041Y-119156734D01*
X231407929Y-119125296D01*
X231433304Y-119087515D01*
X231453705Y-119034133D01*
X231467713Y-118960582D01*
X231473019Y-118861392D01*
X231468673Y-118773522D01*
X231457099Y-118706798D01*
X231440108Y-118657021D01*
X231414329Y-118611664D01*
X231385209Y-118579565D01*
X231352608Y-118558286D01*
X231315338Y-118544398D01*
X231271413Y-118535546D01*
X231219617Y-118532397D01*
X231139811Y-118532397D01*
X231139811Y-119198813D01*
X230934036Y-119198813D01*
X230934036Y-118381210D01*
X231187438Y-118381210D01*
X231280094Y-118385893D01*
G37*
G36*
X235305024Y-118381210D02*
G01*
X235026404Y-119350000D01*
X234775811Y-119350000D01*
X234487421Y-118381210D01*
X234707178Y-118381210D01*
X234904588Y-119179213D01*
X235094975Y-118381210D01*
X235305024Y-118381210D01*
G37*
G36*
X235770856Y-118358801D02*
G01*
X235858247Y-118365667D01*
X235929003Y-118384691D01*
X235994309Y-118416688D01*
X236060650Y-118463825D01*
X235958435Y-118582772D01*
X235899701Y-118543723D01*
X235841385Y-118521477D01*
X235782091Y-118514200D01*
X235732343Y-118519633D01*
X235689218Y-118535334D01*
X235651236Y-118561339D01*
X235617533Y-118598892D01*
X235593288Y-118641705D01*
X235574189Y-118697962D01*
X235561394Y-118770878D01*
X235556655Y-118864200D01*
X235561353Y-118955131D01*
X235574082Y-119026713D01*
X235593173Y-119082437D01*
X235617533Y-119125296D01*
X235651230Y-119162768D01*
X235689411Y-119188781D01*
X235732972Y-119204527D01*
X235783435Y-119209987D01*
X235836261Y-119204786D01*
X235882841Y-119189715D01*
X235927303Y-119165886D01*
X235976692Y-119131585D01*
X236071885Y-119250593D01*
X236014865Y-119298415D01*
X235943719Y-119338093D01*
X235891882Y-119356933D01*
X235835907Y-119368458D01*
X235775069Y-119372409D01*
X235689922Y-119365554D01*
X235614424Y-119345778D01*
X235546885Y-119313607D01*
X235487133Y-119268972D01*
X235436406Y-119211917D01*
X235394234Y-119140744D01*
X235364901Y-119062810D01*
X235346262Y-118971441D01*
X235339645Y-118864200D01*
X235346361Y-118759911D01*
X235365409Y-118669879D01*
X235395638Y-118591931D01*
X235438608Y-118520630D01*
X235489795Y-118463316D01*
X235549633Y-118418335D01*
X235617121Y-118385504D01*
X235690396Y-118365610D01*
X235770856Y-118358801D01*
G37*
G36*
X236541687Y-118358801D02*
G01*
X236629078Y-118365667D01*
X236699834Y-118384691D01*
X236765139Y-118416688D01*
X236831481Y-118463825D01*
X236729265Y-118582772D01*
X236670532Y-118543723D01*
X236612215Y-118521477D01*
X236552922Y-118514200D01*
X236503173Y-118519633D01*
X236460048Y-118535334D01*
X236422066Y-118561339D01*
X236388363Y-118598892D01*
X236364118Y-118641705D01*
X236345020Y-118697962D01*
X236332225Y-118770878D01*
X236327486Y-118864200D01*
X236332183Y-118955131D01*
X236344913Y-119026713D01*
X236364003Y-119082437D01*
X236388363Y-119125296D01*
X236422060Y-119162768D01*
X236460241Y-119188781D01*
X236503802Y-119204527D01*
X236554265Y-119209987D01*
X236607092Y-119204786D01*
X236653672Y-119189715D01*
X236698134Y-119165886D01*
X236747522Y-119131585D01*
X236842716Y-119250593D01*
X236785695Y-119298415D01*
X236714549Y-119338093D01*
X236662713Y-119356933D01*
X236606738Y-119368458D01*
X236545900Y-119372409D01*
X236460753Y-119365554D01*
X236385255Y-119345778D01*
X236317716Y-119313607D01*
X236257964Y-119268972D01*
X236207236Y-119211917D01*
X236165064Y-119140744D01*
X236135732Y-119062810D01*
X236117092Y-118971441D01*
X236110476Y-118864200D01*
X236117192Y-118759911D01*
X236136240Y-118669879D01*
X236166468Y-118591931D01*
X236209438Y-118520630D01*
X236260626Y-118463316D01*
X236320464Y-118418335D01*
X236387951Y-118385504D01*
X236461226Y-118365610D01*
X236541687Y-118358801D01*
G37*
G36*
X238506803Y-86858801D02*
G01*
X238571608Y-86862358D01*
X238629396Y-86872564D01*
X238681071Y-86888904D01*
X238754325Y-86925209D01*
X238823220Y-86975000D01*
X238715387Y-87086985D01*
X238663378Y-87051978D01*
X238618117Y-87029588D01*
X238570665Y-87016122D01*
X238515230Y-87011392D01*
X238461928Y-87017004D01*
X238415285Y-87033261D01*
X238373839Y-87060170D01*
X238336688Y-87098892D01*
X238309260Y-87143551D01*
X238288007Y-87200877D01*
X238273950Y-87273756D01*
X238268789Y-87365605D01*
X238273040Y-87464477D01*
X238284352Y-87539645D01*
X238300884Y-87595672D01*
X238321301Y-87636531D01*
X238350866Y-87672061D01*
X238386912Y-87697222D01*
X238430713Y-87712855D01*
X238484394Y-87718414D01*
X238536695Y-87714399D01*
X238584506Y-87702681D01*
X238628620Y-87683426D01*
X238628620Y-87446816D01*
X238492821Y-87446816D01*
X238471816Y-87296973D01*
X238828777Y-87296973D01*
X238828777Y-87774406D01*
X238750494Y-87815419D01*
X238665683Y-87846519D01*
X238577468Y-87865965D01*
X238488607Y-87872409D01*
X238402134Y-87866577D01*
X238328208Y-87850090D01*
X238264840Y-87823981D01*
X238210412Y-87788608D01*
X238163764Y-87743632D01*
X238126485Y-87691544D01*
X238096183Y-87629385D01*
X238073224Y-87555494D01*
X238058459Y-87467865D01*
X238053183Y-87364200D01*
X238060359Y-87260141D01*
X238080784Y-87169864D01*
X238113389Y-87091198D01*
X238159155Y-87019750D01*
X238213338Y-86962410D01*
X238276482Y-86917602D01*
X238347098Y-86885184D01*
X238423431Y-86865524D01*
X238506803Y-86858801D01*
G37*
G36*
X239729849Y-87850000D02*
G01*
X239465273Y-87850000D01*
X239157283Y-87081428D01*
X239177555Y-87268274D01*
X239183181Y-87359531D01*
X239185249Y-87473377D01*
X239185249Y-87850000D01*
X238999075Y-87850000D01*
X238999075Y-86881210D01*
X239258033Y-86881210D01*
X239571641Y-87651186D01*
X239550320Y-87466976D01*
X239543675Y-87306803D01*
X239543675Y-86881210D01*
X239729849Y-86881210D01*
X239729849Y-87850000D01*
G37*
G36*
X240280094Y-86885893D02*
G01*
X240361400Y-86899222D01*
X240432792Y-86920337D01*
X240495535Y-86948696D01*
X240550689Y-86984098D01*
X240596137Y-87027559D01*
X240633167Y-87083979D01*
X240661640Y-87155974D01*
X240680367Y-87247042D01*
X240687220Y-87361392D01*
X240680622Y-87472966D01*
X240662466Y-87563273D01*
X240634660Y-87635973D01*
X240598282Y-87694134D01*
X240553497Y-87740090D01*
X240498724Y-87778653D01*
X240438010Y-87809031D01*
X240370548Y-87831302D01*
X240295332Y-87845174D01*
X240211191Y-87850000D01*
X239934036Y-87850000D01*
X239934036Y-87698813D01*
X240139811Y-87698813D01*
X240223831Y-87698813D01*
X240282551Y-87693755D01*
X240331682Y-87679491D01*
X240373041Y-87656734D01*
X240407929Y-87625296D01*
X240433304Y-87587515D01*
X240453705Y-87534133D01*
X240467713Y-87460582D01*
X240473019Y-87361392D01*
X240468673Y-87273522D01*
X240457099Y-87206798D01*
X240440108Y-87157021D01*
X240414329Y-87111664D01*
X240385209Y-87079565D01*
X240352608Y-87058286D01*
X240315338Y-87044398D01*
X240271413Y-87035546D01*
X240219617Y-87032397D01*
X240139811Y-87032397D01*
X240139811Y-87698813D01*
X239934036Y-87698813D01*
X239934036Y-86881210D01*
X240187438Y-86881210D01*
X240280094Y-86885893D01*
G37*
G36*
X238832990Y-90350000D02*
G01*
X238614576Y-90350000D01*
X238559987Y-90132990D01*
X238256210Y-90132990D01*
X238201622Y-90350000D01*
X237987421Y-90350000D01*
X238101171Y-89980399D01*
X238295411Y-89980399D01*
X238520786Y-89980399D01*
X238407397Y-89533801D01*
X238295411Y-89980399D01*
X238101171Y-89980399D01*
X238285580Y-89381210D01*
X238536174Y-89381210D01*
X238832990Y-90350000D01*
G37*
G36*
X239323973Y-89386662D02*
G01*
X239403741Y-89401555D01*
X239467052Y-89424139D01*
X239516870Y-89453323D01*
X239558946Y-89492969D01*
X239589173Y-89541149D01*
X239608118Y-89599612D01*
X239614872Y-89671004D01*
X239609246Y-89732920D01*
X239593376Y-89784511D01*
X239567978Y-89827808D01*
X239533304Y-89864863D01*
X239485883Y-89899901D01*
X239423080Y-89932772D01*
X239673674Y-90350000D01*
X239439872Y-90350000D01*
X239232693Y-89970629D01*
X239127669Y-89970629D01*
X239127669Y-90350000D01*
X238921894Y-90350000D01*
X238921894Y-89825000D01*
X239127669Y-89825000D01*
X239235502Y-89825000D01*
X239289380Y-89820256D01*
X239329869Y-89807473D01*
X239360066Y-89787936D01*
X239382349Y-89760337D01*
X239396734Y-89722491D01*
X239402076Y-89671004D01*
X239396586Y-89623610D01*
X239381638Y-89588463D01*
X239357990Y-89562500D01*
X239326576Y-89544802D01*
X239282009Y-89532767D01*
X239220054Y-89528183D01*
X239127669Y-89528183D01*
X239127669Y-89825000D01*
X238921894Y-89825000D01*
X238921894Y-89381210D01*
X239224267Y-89381210D01*
X239323973Y-89386662D01*
G37*
G36*
X240358836Y-89381210D02*
G01*
X240336427Y-89530992D01*
X239986427Y-89530992D01*
X239986427Y-89782990D01*
X240291608Y-89782990D01*
X240291608Y-89931428D01*
X239986427Y-89931428D01*
X239986427Y-90198813D01*
X240361645Y-90198813D01*
X240361645Y-90350000D01*
X239780652Y-90350000D01*
X239780652Y-89381210D01*
X240358836Y-89381210D01*
G37*
G36*
X240519242Y-90350000D02*
G01*
X240519242Y-89381210D01*
X241082039Y-89381210D01*
X241059630Y-89530992D01*
X240725017Y-89530992D01*
X240725017Y-89805399D01*
X241016215Y-89805399D01*
X241016215Y-89955181D01*
X240725017Y-89955181D01*
X240725017Y-90350000D01*
X240519242Y-90350000D01*
G37*
G36*
X238832990Y-92850000D02*
G01*
X238614576Y-92850000D01*
X238559987Y-92632990D01*
X238256210Y-92632990D01*
X238201622Y-92850000D01*
X237987421Y-92850000D01*
X238101171Y-92480399D01*
X238295411Y-92480399D01*
X238520786Y-92480399D01*
X238407397Y-92033801D01*
X238295411Y-92480399D01*
X238101171Y-92480399D01*
X238285580Y-91881210D01*
X238536174Y-91881210D01*
X238832990Y-92850000D01*
G37*
G36*
X239601256Y-91881210D02*
G01*
X239322636Y-92850000D01*
X239072042Y-92850000D01*
X238783653Y-91881210D01*
X239003410Y-91881210D01*
X239200819Y-92679213D01*
X239391207Y-91881210D01*
X239601256Y-91881210D01*
G37*
G36*
X240067088Y-91858801D02*
G01*
X240154479Y-91865667D01*
X240225235Y-91884691D01*
X240290541Y-91916688D01*
X240356882Y-91963825D01*
X240254666Y-92082772D01*
X240195933Y-92043723D01*
X240137616Y-92021477D01*
X240078323Y-92014200D01*
X240028574Y-92019633D01*
X239985449Y-92035334D01*
X239947467Y-92061339D01*
X239913764Y-92098892D01*
X239889520Y-92141705D01*
X239870421Y-92197962D01*
X239857626Y-92270878D01*
X239852887Y-92364200D01*
X239857585Y-92455131D01*
X239870314Y-92526713D01*
X239889404Y-92582437D01*
X239913764Y-92625296D01*
X239947462Y-92662768D01*
X239985643Y-92688781D01*
X240029203Y-92704527D01*
X240079666Y-92709987D01*
X240132493Y-92704786D01*
X240179073Y-92689715D01*
X240223535Y-92665886D01*
X240272923Y-92631585D01*
X240368117Y-92750593D01*
X240311097Y-92798415D01*
X240239951Y-92838093D01*
X240188114Y-92856933D01*
X240132139Y-92868458D01*
X240071301Y-92872409D01*
X239986154Y-92865554D01*
X239910656Y-92845778D01*
X239843117Y-92813607D01*
X239783365Y-92768972D01*
X239732637Y-92711917D01*
X239690465Y-92640744D01*
X239661133Y-92562810D01*
X239642494Y-92471441D01*
X239635877Y-92364200D01*
X239642593Y-92259911D01*
X239661641Y-92169879D01*
X239691870Y-92091931D01*
X239734839Y-92020630D01*
X239786027Y-91963316D01*
X239845865Y-91918335D01*
X239913352Y-91885504D01*
X239986627Y-91865610D01*
X240067088Y-91858801D01*
G37*
G36*
X240837918Y-91858801D02*
G01*
X240925309Y-91865667D01*
X240996065Y-91884691D01*
X241061371Y-91916688D01*
X241127712Y-91963825D01*
X241025497Y-92082772D01*
X240966763Y-92043723D01*
X240908447Y-92021477D01*
X240849153Y-92014200D01*
X240799405Y-92019633D01*
X240756280Y-92035334D01*
X240718298Y-92061339D01*
X240684595Y-92098892D01*
X240660350Y-92141705D01*
X240641252Y-92197962D01*
X240628457Y-92270878D01*
X240623717Y-92364200D01*
X240628415Y-92455131D01*
X240641145Y-92526713D01*
X240660235Y-92582437D01*
X240684595Y-92625296D01*
X240718292Y-92662768D01*
X240756473Y-92688781D01*
X240800034Y-92704527D01*
X240850497Y-92709987D01*
X240903323Y-92704786D01*
X240949904Y-92689715D01*
X240994365Y-92665886D01*
X241043754Y-92631585D01*
X241138948Y-92750593D01*
X241081927Y-92798415D01*
X241010781Y-92838093D01*
X240958944Y-92856933D01*
X240902970Y-92868458D01*
X240842131Y-92872409D01*
X240756984Y-92865554D01*
X240681486Y-92845778D01*
X240613948Y-92813607D01*
X240554195Y-92768972D01*
X240503468Y-92711917D01*
X240461296Y-92640744D01*
X240431963Y-92562810D01*
X240413324Y-92471441D01*
X240406707Y-92364200D01*
X240413423Y-92259911D01*
X240432471Y-92169879D01*
X240462700Y-92091931D01*
X240505670Y-92020630D01*
X240556857Y-91963316D01*
X240616695Y-91918335D01*
X240684183Y-91885504D01*
X240757458Y-91865610D01*
X240837918Y-91858801D01*
G37*
G36*
X238448273Y-94385893D02*
G01*
X238529579Y-94399222D01*
X238600971Y-94420337D01*
X238663714Y-94448696D01*
X238718867Y-94484098D01*
X238764316Y-94527559D01*
X238801346Y-94583979D01*
X238829819Y-94655974D01*
X238848546Y-94747042D01*
X238855399Y-94861392D01*
X238848801Y-94972966D01*
X238830645Y-95063273D01*
X238802839Y-95135973D01*
X238766461Y-95194134D01*
X238721676Y-95240090D01*
X238666903Y-95278653D01*
X238606188Y-95309031D01*
X238538727Y-95331302D01*
X238463511Y-95345174D01*
X238379370Y-95350000D01*
X238102215Y-95350000D01*
X238102215Y-95198813D01*
X238307990Y-95198813D01*
X238392009Y-95198813D01*
X238450729Y-95193755D01*
X238499861Y-95179491D01*
X238541220Y-95156734D01*
X238576107Y-95125296D01*
X238601483Y-95087515D01*
X238621883Y-95034133D01*
X238635892Y-94960582D01*
X238641198Y-94861392D01*
X238636852Y-94773522D01*
X238625278Y-94706798D01*
X238608286Y-94657021D01*
X238582508Y-94611664D01*
X238553387Y-94579565D01*
X238520786Y-94558286D01*
X238483517Y-94544398D01*
X238439591Y-94535546D01*
X238387796Y-94532397D01*
X238307990Y-94532397D01*
X238307990Y-95198813D01*
X238102215Y-95198813D01*
X238102215Y-94381210D01*
X238355617Y-94381210D01*
X238448273Y-94385893D01*
G37*
G36*
X239404823Y-94406428D02*
G01*
X239404823Y-95350000D01*
X239210223Y-95350000D01*
X239210223Y-94602372D01*
X239002983Y-94729806D01*
X238916215Y-94595411D01*
X239229823Y-94406428D01*
X239404823Y-94406428D01*
G37*
G36*
X239857955Y-94388171D02*
G01*
X239921777Y-94391974D01*
X239976637Y-94402721D01*
X240023857Y-94419678D01*
X240067431Y-94444008D01*
X240102019Y-94472688D01*
X240128820Y-94505835D01*
X240148637Y-94543555D01*
X240160509Y-94583880D01*
X240164541Y-94627590D01*
X240158796Y-94682709D01*
X240142367Y-94729504D01*
X240115509Y-94769740D01*
X240079793Y-94803021D01*
X240035100Y-94829896D01*
X239979771Y-94850218D01*
X240040784Y-94862633D01*
X240091984Y-94885533D01*
X240135170Y-94918789D01*
X240160762Y-94949921D01*
X240179439Y-94986781D01*
X240191201Y-95030506D01*
X240195376Y-95082615D01*
X240190690Y-95135557D01*
X240176923Y-95184264D01*
X240154038Y-95229649D01*
X240122928Y-95269741D01*
X240082988Y-95304436D01*
X240032955Y-95333941D01*
X239978468Y-95354739D01*
X239915946Y-95367812D01*
X239843972Y-95372409D01*
X239764567Y-95366372D01*
X239694942Y-95349065D01*
X239633470Y-95321150D01*
X239578885Y-95282537D01*
X239530364Y-95232397D01*
X239638136Y-95128777D01*
X239687125Y-95171004D01*
X239731926Y-95197409D01*
X239779793Y-95213069D01*
X239832737Y-95218414D01*
X239879814Y-95213660D01*
X239917658Y-95200389D01*
X239948264Y-95179213D01*
X239971469Y-95150525D01*
X239985820Y-95114810D01*
X239990945Y-95069975D01*
X239985760Y-95021314D01*
X239971856Y-94986064D01*
X239950340Y-94960799D01*
X239921317Y-94943225D01*
X239881794Y-94931574D01*
X239828585Y-94927215D01*
X239751587Y-94927215D01*
X239775340Y-94787203D01*
X239827180Y-94787203D01*
X239869722Y-94782968D01*
X239904131Y-94771126D01*
X239932144Y-94752215D01*
X239953483Y-94726513D01*
X239966647Y-94694481D01*
X239971345Y-94654213D01*
X239967112Y-94619454D01*
X239955172Y-94591532D01*
X239935624Y-94568850D01*
X239910185Y-94552292D01*
X239878341Y-94541799D01*
X239838354Y-94538014D01*
X239786761Y-94543015D01*
X239740352Y-94557615D01*
X239697079Y-94581998D01*
X239652180Y-94619225D01*
X239552773Y-94511392D01*
X239607549Y-94466389D01*
X239664868Y-94432143D01*
X239725227Y-94407855D01*
X239789310Y-94393165D01*
X239857955Y-94388171D01*
G37*
G36*
X238448273Y-96885893D02*
G01*
X238529579Y-96899222D01*
X238600971Y-96920337D01*
X238663714Y-96948696D01*
X238718867Y-96984098D01*
X238764316Y-97027559D01*
X238801346Y-97083979D01*
X238829819Y-97155974D01*
X238848546Y-97247042D01*
X238855399Y-97361392D01*
X238848801Y-97472966D01*
X238830645Y-97563273D01*
X238802839Y-97635973D01*
X238766461Y-97694134D01*
X238721676Y-97740090D01*
X238666903Y-97778653D01*
X238606188Y-97809031D01*
X238538727Y-97831302D01*
X238463511Y-97845174D01*
X238379370Y-97850000D01*
X238102215Y-97850000D01*
X238102215Y-97698813D01*
X238307990Y-97698813D01*
X238392009Y-97698813D01*
X238450729Y-97693755D01*
X238499861Y-97679491D01*
X238541220Y-97656734D01*
X238576107Y-97625296D01*
X238601483Y-97587515D01*
X238621883Y-97534133D01*
X238635892Y-97460582D01*
X238641198Y-97361392D01*
X238636852Y-97273522D01*
X238625278Y-97206798D01*
X238608286Y-97157021D01*
X238582508Y-97111664D01*
X238553387Y-97079565D01*
X238520786Y-97058286D01*
X238483517Y-97044398D01*
X238439591Y-97035546D01*
X238387796Y-97032397D01*
X238307990Y-97032397D01*
X238307990Y-97698813D01*
X238102215Y-97698813D01*
X238102215Y-96881210D01*
X238355617Y-96881210D01*
X238448273Y-96885893D01*
G37*
G36*
X239404823Y-96906428D02*
G01*
X239404823Y-97850000D01*
X239210223Y-97850000D01*
X239210223Y-97102372D01*
X239002983Y-97229806D01*
X238916215Y-97095411D01*
X239229823Y-96906428D01*
X239404823Y-96906428D01*
G37*
G36*
X239859359Y-96888171D02*
G01*
X239923904Y-96892436D01*
X239979930Y-96904566D01*
X240028742Y-96923892D01*
X240073415Y-96951147D01*
X240109231Y-96983285D01*
X240137247Y-97020551D01*
X240157808Y-97062449D01*
X240170170Y-97107207D01*
X240174371Y-97155617D01*
X240170727Y-97206241D01*
X240159817Y-97255539D01*
X240141460Y-97303995D01*
X240100072Y-97375477D01*
X240029413Y-97465012D01*
X239939970Y-97559842D01*
X239799153Y-97696004D01*
X240195376Y-97696004D01*
X240172967Y-97850000D01*
X239572374Y-97850000D01*
X239572374Y-97705774D01*
X239735770Y-97539885D01*
X239827180Y-97442602D01*
X239897843Y-97357330D01*
X239937761Y-97295629D01*
X239955857Y-97254555D01*
X239966443Y-97213653D01*
X239969940Y-97172409D01*
X239965737Y-97133703D01*
X239953949Y-97102531D01*
X239934952Y-97077215D01*
X239909667Y-97058153D01*
X239878924Y-97046397D01*
X239841163Y-97042227D01*
X239791587Y-97048146D01*
X239748778Y-97065308D01*
X239709368Y-97093926D01*
X239663354Y-97141573D01*
X239544347Y-97046379D01*
X239596661Y-96988323D01*
X239653481Y-96944537D01*
X239715425Y-96913532D01*
X239783566Y-96894663D01*
X239859359Y-96888171D01*
G37*
G36*
X238448273Y-99385893D02*
G01*
X238529579Y-99399222D01*
X238600971Y-99420337D01*
X238663714Y-99448696D01*
X238718867Y-99484098D01*
X238764316Y-99527559D01*
X238801346Y-99583979D01*
X238829819Y-99655974D01*
X238848546Y-99747042D01*
X238855399Y-99861392D01*
X238848801Y-99972966D01*
X238830645Y-100063273D01*
X238802839Y-100135973D01*
X238766461Y-100194134D01*
X238721676Y-100240090D01*
X238666903Y-100278653D01*
X238606188Y-100309031D01*
X238538727Y-100331302D01*
X238463511Y-100345174D01*
X238379370Y-100350000D01*
X238102215Y-100350000D01*
X238102215Y-100198813D01*
X238307990Y-100198813D01*
X238392009Y-100198813D01*
X238450729Y-100193755D01*
X238499861Y-100179491D01*
X238541220Y-100156734D01*
X238576107Y-100125296D01*
X238601483Y-100087515D01*
X238621883Y-100034133D01*
X238635892Y-99960582D01*
X238641198Y-99861392D01*
X238636852Y-99773522D01*
X238625278Y-99706798D01*
X238608286Y-99657021D01*
X238582508Y-99611664D01*
X238553387Y-99579565D01*
X238520786Y-99558286D01*
X238483517Y-99544398D01*
X238439591Y-99535546D01*
X238387796Y-99532397D01*
X238307990Y-99532397D01*
X238307990Y-100198813D01*
X238102215Y-100198813D01*
X238102215Y-99381210D01*
X238355617Y-99381210D01*
X238448273Y-99385893D01*
G37*
G36*
X239404823Y-99406428D02*
G01*
X239404823Y-100350000D01*
X239210223Y-100350000D01*
X239210223Y-99602372D01*
X239002983Y-99729806D01*
X238916215Y-99595411D01*
X239229823Y-99406428D01*
X239404823Y-99406428D01*
G37*
G36*
X240019338Y-99406428D02*
G01*
X240019338Y-100350000D01*
X239824738Y-100350000D01*
X239824738Y-99602372D01*
X239617498Y-99729806D01*
X239530730Y-99595411D01*
X239844338Y-99406428D01*
X240019338Y-99406428D01*
G37*
G36*
X238448273Y-101885893D02*
G01*
X238529579Y-101899222D01*
X238600971Y-101920337D01*
X238663714Y-101948696D01*
X238718867Y-101984098D01*
X238764316Y-102027559D01*
X238801346Y-102083979D01*
X238829819Y-102155974D01*
X238848546Y-102247042D01*
X238855399Y-102361392D01*
X238848801Y-102472966D01*
X238830645Y-102563273D01*
X238802839Y-102635973D01*
X238766461Y-102694134D01*
X238721676Y-102740090D01*
X238666903Y-102778653D01*
X238606188Y-102809031D01*
X238538727Y-102831302D01*
X238463511Y-102845174D01*
X238379370Y-102850000D01*
X238102215Y-102850000D01*
X238102215Y-102698813D01*
X238307990Y-102698813D01*
X238392009Y-102698813D01*
X238450729Y-102693755D01*
X238499861Y-102679491D01*
X238541220Y-102656734D01*
X238576107Y-102625296D01*
X238601483Y-102587515D01*
X238621883Y-102534133D01*
X238635892Y-102460582D01*
X238641198Y-102361392D01*
X238636852Y-102273522D01*
X238625278Y-102206798D01*
X238608286Y-102157021D01*
X238582508Y-102111664D01*
X238553387Y-102079565D01*
X238520786Y-102058286D01*
X238483517Y-102044398D01*
X238439591Y-102035546D01*
X238387796Y-102032397D01*
X238307990Y-102032397D01*
X238307990Y-102698813D01*
X238102215Y-102698813D01*
X238102215Y-101881210D01*
X238355617Y-101881210D01*
X238448273Y-101885893D01*
G37*
G36*
X239404823Y-101906428D02*
G01*
X239404823Y-102850000D01*
X239210223Y-102850000D01*
X239210223Y-102102372D01*
X239002983Y-102229806D01*
X238916215Y-102095411D01*
X239229823Y-101906428D01*
X239404823Y-101906428D01*
G37*
G36*
X240001057Y-101893659D02*
G01*
X240059282Y-101909309D01*
X240109864Y-101934485D01*
X240154031Y-101969354D01*
X240192506Y-102014872D01*
X240228457Y-102079114D01*
X240256088Y-102159073D01*
X240274169Y-102257976D01*
X240280739Y-102379588D01*
X240274135Y-102501118D01*
X240255942Y-102600148D01*
X240228105Y-102680394D01*
X240191835Y-102745036D01*
X240153025Y-102790918D01*
X240108721Y-102825993D01*
X240058232Y-102851257D01*
X240000372Y-102866925D01*
X239933548Y-102872409D01*
X239866711Y-102866918D01*
X239808926Y-102851238D01*
X239758584Y-102825970D01*
X239714485Y-102790903D01*
X239675933Y-102745036D01*
X239639983Y-102680442D01*
X239612371Y-102600215D01*
X239594317Y-102501168D01*
X239587761Y-102379588D01*
X239792131Y-102379588D01*
X239796309Y-102500482D01*
X239806847Y-102581943D01*
X239819749Y-102631061D01*
X239835148Y-102665895D01*
X239852337Y-102689715D01*
X239874746Y-102707811D01*
X239901393Y-102718782D01*
X239933548Y-102722627D01*
X239965796Y-102718851D01*
X239992441Y-102708104D01*
X240014759Y-102690448D01*
X240031969Y-102667042D01*
X240047585Y-102632468D01*
X240060921Y-102583347D01*
X240071972Y-102501711D01*
X240076369Y-102379588D01*
X240071961Y-102256299D01*
X240060921Y-102174546D01*
X240047550Y-102125390D01*
X240031931Y-102091086D01*
X240014759Y-102068117D01*
X239992491Y-102050858D01*
X239965845Y-102040319D01*
X239933548Y-102036610D01*
X239901393Y-102040455D01*
X239874746Y-102051426D01*
X239852337Y-102069521D01*
X239835154Y-102093306D01*
X239819754Y-102128134D01*
X239806847Y-102177294D01*
X239796309Y-102258747D01*
X239792131Y-102379588D01*
X239587761Y-102379588D01*
X239594327Y-102257972D01*
X239612396Y-102159067D01*
X239640009Y-102079110D01*
X239675933Y-102014872D01*
X239714449Y-101969282D01*
X239758527Y-101934401D01*
X239808867Y-101909252D01*
X239866671Y-101893640D01*
X239933548Y-101888171D01*
X240001057Y-101893659D01*
G37*
G36*
X238448273Y-104385893D02*
G01*
X238529579Y-104399222D01*
X238600971Y-104420337D01*
X238663714Y-104448696D01*
X238718867Y-104484098D01*
X238764316Y-104527559D01*
X238801346Y-104583979D01*
X238829819Y-104655974D01*
X238848546Y-104747042D01*
X238855399Y-104861392D01*
X238848801Y-104972966D01*
X238830645Y-105063273D01*
X238802839Y-105135973D01*
X238766461Y-105194134D01*
X238721676Y-105240090D01*
X238666903Y-105278653D01*
X238606188Y-105309031D01*
X238538727Y-105331302D01*
X238463511Y-105345174D01*
X238379370Y-105350000D01*
X238102215Y-105350000D01*
X238102215Y-105198813D01*
X238307990Y-105198813D01*
X238392009Y-105198813D01*
X238450729Y-105193755D01*
X238499861Y-105179491D01*
X238541220Y-105156734D01*
X238576107Y-105125296D01*
X238601483Y-105087515D01*
X238621883Y-105034133D01*
X238635892Y-104960582D01*
X238641198Y-104861392D01*
X238636852Y-104773522D01*
X238625278Y-104706798D01*
X238608286Y-104657021D01*
X238582508Y-104611664D01*
X238553387Y-104579565D01*
X238520786Y-104558286D01*
X238483517Y-104544398D01*
X238439591Y-104535546D01*
X238387796Y-104532397D01*
X238307990Y-104532397D01*
X238307990Y-105198813D01*
X238102215Y-105198813D01*
X238102215Y-104381210D01*
X238355617Y-104381210D01*
X238448273Y-104385893D01*
G37*
G36*
X239373498Y-104395088D02*
G01*
X239441215Y-104414498D01*
X239497562Y-104445283D01*
X239544469Y-104487578D01*
X239581562Y-104539396D01*
X239608774Y-104599851D01*
X239625909Y-104670570D01*
X239631969Y-104753620D01*
X239627723Y-104851223D01*
X239615766Y-104935252D01*
X239597094Y-105007429D01*
X239572435Y-105069303D01*
X239538859Y-105127974D01*
X239497571Y-105180357D01*
X239448120Y-105226983D01*
X239389741Y-105268117D01*
X239305079Y-105311982D01*
X239198161Y-105352209D01*
X239064959Y-105387796D01*
X239022950Y-105246379D01*
X239144713Y-105209451D01*
X239235836Y-105169203D01*
X239302241Y-105126700D01*
X239344605Y-105086847D01*
X239377997Y-105040296D01*
X239402905Y-104986133D01*
X239419173Y-104923002D01*
X239377864Y-104965706D01*
X239331733Y-104995421D01*
X239279773Y-105013392D01*
X239220359Y-105019600D01*
X239171982Y-105015330D01*
X239127207Y-105002754D01*
X239085232Y-104981803D01*
X239047880Y-104953435D01*
X239015770Y-104917812D01*
X238988633Y-104874031D01*
X238969260Y-104826124D01*
X238957191Y-104771898D01*
X238952974Y-104710205D01*
X238953437Y-104704588D01*
X239151788Y-104704588D01*
X239156360Y-104763630D01*
X239168357Y-104805880D01*
X239186043Y-104835502D01*
X239211360Y-104858352D01*
X239241427Y-104872017D01*
X239277756Y-104876779D01*
X239319819Y-104871442D01*
X239358353Y-104855544D01*
X239394526Y-104828196D01*
X239428942Y-104787203D01*
X239425305Y-104693954D01*
X239414366Y-104631054D01*
X239398839Y-104590526D01*
X239373345Y-104558577D01*
X239338690Y-104539328D01*
X239291739Y-104532397D01*
X239249951Y-104537602D01*
X239216294Y-104552328D01*
X239188852Y-104576543D01*
X239169284Y-104608040D01*
X239156509Y-104649734D01*
X239151788Y-104704588D01*
X238953437Y-104704588D01*
X238958180Y-104647084D01*
X238973218Y-104591046D01*
X238997732Y-104540823D01*
X239031201Y-104495907D01*
X239071575Y-104458516D01*
X239119548Y-104428105D01*
X239172171Y-104406154D01*
X239229267Y-104392764D01*
X239291739Y-104388171D01*
X239373498Y-104395088D01*
G37*
G36*
X238830000Y-71905423D02*
G01*
X238612990Y-71960012D01*
X238612990Y-72263789D01*
X238830000Y-72318377D01*
X238830000Y-72532578D01*
X237861210Y-72234419D01*
X237861210Y-72112602D01*
X238013801Y-72112602D01*
X238460399Y-72224588D01*
X238460399Y-71999213D01*
X238013801Y-72112602D01*
X237861210Y-72112602D01*
X237861210Y-71983825D01*
X238830000Y-71687009D01*
X238830000Y-71905423D01*
G37*
G36*
X238030593Y-71075914D02*
G01*
X238030593Y-71424509D01*
X238247602Y-71424509D01*
X238229652Y-71377932D01*
X238218987Y-71330505D01*
X238215423Y-71281749D01*
X238219624Y-71230499D01*
X238231824Y-71184383D01*
X238251816Y-71142470D01*
X238279357Y-71105144D01*
X238314276Y-71073270D01*
X238357512Y-71046543D01*
X238404913Y-71027535D01*
X238458881Y-71015656D01*
X238520605Y-71011495D01*
X238584688Y-71016694D01*
X238641924Y-71031744D01*
X238693529Y-71056313D01*
X238739531Y-71090083D01*
X238778332Y-71132006D01*
X238810399Y-71183014D01*
X238833282Y-71239024D01*
X238847472Y-71301846D01*
X238852409Y-71372730D01*
X238846794Y-71443943D01*
X238830391Y-71509088D01*
X238803388Y-71569271D01*
X238765342Y-71625356D01*
X238715205Y-71677911D01*
X238610181Y-71565926D01*
X238650350Y-71523574D01*
X238677916Y-71478761D01*
X238694276Y-71430737D01*
X238699818Y-71378347D01*
X238694245Y-71329012D01*
X238678679Y-71289901D01*
X238653595Y-71258668D01*
X238620280Y-71235897D01*
X238576927Y-71221276D01*
X238520605Y-71215926D01*
X238464803Y-71220785D01*
X238423605Y-71233779D01*
X238393548Y-71253461D01*
X238372271Y-71279770D01*
X238358853Y-71314036D01*
X238353970Y-71358747D01*
X238355947Y-71388939D01*
X238361725Y-71416816D01*
X238371592Y-71444302D01*
X238387615Y-71476350D01*
X238387615Y-71614897D01*
X237886428Y-71614897D01*
X237886428Y-71052100D01*
X238030593Y-71075914D01*
G37*
G36*
X238830000Y-74405423D02*
G01*
X238612990Y-74460012D01*
X238612990Y-74763789D01*
X238830000Y-74818377D01*
X238830000Y-75032578D01*
X237861210Y-74734419D01*
X237861210Y-74612602D01*
X238013801Y-74612602D01*
X238460399Y-74724588D01*
X238460399Y-74499213D01*
X238013801Y-74612602D01*
X237861210Y-74612602D01*
X237861210Y-74483825D01*
X238830000Y-74187009D01*
X238830000Y-74405423D01*
G37*
G36*
X238468825Y-73480048D02*
G01*
X238620012Y-73480048D01*
X238620012Y-73590690D01*
X238830000Y-73590690D01*
X238830000Y-73783886D01*
X238620012Y-73785291D01*
X238620012Y-74184262D01*
X238485617Y-74184262D01*
X237865423Y-73912663D01*
X237928377Y-73744685D01*
X238468825Y-73978487D01*
X238468825Y-73782482D01*
X238237772Y-73761477D01*
X238237772Y-73590690D01*
X238468825Y-73590690D01*
X238468825Y-73480048D01*
G37*
G36*
X238830000Y-76905423D02*
G01*
X238612990Y-76960012D01*
X238612990Y-77263789D01*
X238830000Y-77318377D01*
X238830000Y-77532578D01*
X237861210Y-77234419D01*
X237861210Y-77112602D01*
X238013801Y-77112602D01*
X238460399Y-77224588D01*
X238460399Y-76999213D01*
X238013801Y-77112602D01*
X237861210Y-77112602D01*
X237861210Y-76983825D01*
X238830000Y-76687009D01*
X238830000Y-76905423D01*
G37*
G36*
X237868171Y-76371325D02*
G01*
X237871974Y-76307503D01*
X237882721Y-76252643D01*
X237899678Y-76205423D01*
X237924008Y-76161849D01*
X237952688Y-76127261D01*
X237985835Y-76100460D01*
X238023555Y-76080644D01*
X238063880Y-76068771D01*
X238107590Y-76064740D01*
X238162709Y-76070485D01*
X238209504Y-76086913D01*
X238249740Y-76113771D01*
X238283021Y-76149487D01*
X238309896Y-76194180D01*
X238330218Y-76249509D01*
X238342633Y-76188496D01*
X238365533Y-76137296D01*
X238398789Y-76094110D01*
X238429921Y-76068519D01*
X238466781Y-76049841D01*
X238510506Y-76038079D01*
X238562615Y-76033904D01*
X238615557Y-76038590D01*
X238664264Y-76052357D01*
X238709649Y-76075242D01*
X238749741Y-76106353D01*
X238784436Y-76146292D01*
X238813941Y-76196325D01*
X238834739Y-76250812D01*
X238847812Y-76313334D01*
X238852409Y-76385308D01*
X238846372Y-76464714D01*
X238829065Y-76534338D01*
X238801150Y-76595810D01*
X238762537Y-76650395D01*
X238712397Y-76698916D01*
X238608777Y-76591144D01*
X238651004Y-76542155D01*
X238677409Y-76497355D01*
X238693069Y-76449487D01*
X238698414Y-76396543D01*
X238693660Y-76349466D01*
X238680389Y-76311623D01*
X238659213Y-76281017D01*
X238630525Y-76257811D01*
X238594810Y-76243460D01*
X238549975Y-76238335D01*
X238501314Y-76243520D01*
X238466064Y-76257424D01*
X238440799Y-76278941D01*
X238423225Y-76307963D01*
X238411574Y-76347486D01*
X238407215Y-76400696D01*
X238407215Y-76477693D01*
X238267203Y-76453941D01*
X238267203Y-76402100D01*
X238262968Y-76359559D01*
X238251126Y-76325149D01*
X238232215Y-76297137D01*
X238206513Y-76275797D01*
X238174481Y-76262633D01*
X238134213Y-76257936D01*
X238099454Y-76262168D01*
X238071532Y-76274108D01*
X238048850Y-76293656D01*
X238032292Y-76319095D01*
X238021799Y-76350939D01*
X238018014Y-76390926D01*
X238023015Y-76442520D01*
X238037615Y-76488928D01*
X238061998Y-76532201D01*
X238099225Y-76577100D01*
X237991392Y-76676507D01*
X237946389Y-76621731D01*
X237912143Y-76564412D01*
X237887855Y-76504053D01*
X237873165Y-76439970D01*
X237868171Y-76371325D01*
G37*
G36*
X238830000Y-79905423D02*
G01*
X238612990Y-79960012D01*
X238612990Y-80263789D01*
X238830000Y-80318377D01*
X238830000Y-80532578D01*
X237861210Y-80234419D01*
X237861210Y-80112602D01*
X238013801Y-80112602D01*
X238460399Y-80224588D01*
X238460399Y-79999213D01*
X238013801Y-80112602D01*
X237861210Y-80112602D01*
X237861210Y-79983825D01*
X238830000Y-79687009D01*
X238830000Y-79905423D01*
G37*
G36*
X237868171Y-79355266D02*
G01*
X237872436Y-79290722D01*
X237884566Y-79234696D01*
X237903892Y-79185884D01*
X237931147Y-79141211D01*
X237963285Y-79105394D01*
X238000551Y-79077379D01*
X238042449Y-79056817D01*
X238087207Y-79044456D01*
X238135617Y-79040254D01*
X238186241Y-79043899D01*
X238235539Y-79054808D01*
X238283995Y-79073166D01*
X238355477Y-79114554D01*
X238445012Y-79185212D01*
X238539842Y-79274656D01*
X238676004Y-79415472D01*
X238676004Y-79019249D01*
X238830000Y-79041659D01*
X238830000Y-79642252D01*
X238685774Y-79642252D01*
X238519885Y-79478856D01*
X238422602Y-79387445D01*
X238337330Y-79316783D01*
X238275629Y-79276864D01*
X238234555Y-79258769D01*
X238193653Y-79248183D01*
X238152409Y-79244685D01*
X238113703Y-79248889D01*
X238082531Y-79260676D01*
X238057215Y-79279673D01*
X238038153Y-79304959D01*
X238026397Y-79335702D01*
X238022227Y-79373463D01*
X238028146Y-79423038D01*
X238045308Y-79465847D01*
X238073926Y-79505258D01*
X238121573Y-79551271D01*
X238026379Y-79670279D01*
X237968323Y-79617965D01*
X237924537Y-79561144D01*
X237893532Y-79499201D01*
X237874663Y-79431059D01*
X237868171Y-79355266D01*
G37*
G36*
X238830000Y-82405423D02*
G01*
X238612990Y-82460012D01*
X238612990Y-82763789D01*
X238830000Y-82818377D01*
X238830000Y-83032578D01*
X237861210Y-82734419D01*
X237861210Y-82612602D01*
X238013801Y-82612602D01*
X238460399Y-82724588D01*
X238460399Y-82499213D01*
X238013801Y-82612602D01*
X237861210Y-82612602D01*
X237861210Y-82483825D01*
X238830000Y-82187009D01*
X238830000Y-82405423D01*
G37*
G36*
X237886428Y-81755860D02*
G01*
X238830000Y-81755860D01*
X238830000Y-81950460D01*
X238082372Y-81950460D01*
X238209806Y-82157700D01*
X238075411Y-82244467D01*
X237886428Y-81930860D01*
X237886428Y-81755860D01*
G37*
G36*
X238830000Y-84905423D02*
G01*
X238612990Y-84960012D01*
X238612990Y-85263789D01*
X238830000Y-85318377D01*
X238830000Y-85532578D01*
X237861210Y-85234419D01*
X237861210Y-85112602D01*
X238013801Y-85112602D01*
X238460399Y-85224588D01*
X238460399Y-84999213D01*
X238013801Y-85112602D01*
X237861210Y-85112602D01*
X237861210Y-84983825D01*
X238830000Y-84687009D01*
X238830000Y-84905423D01*
G37*
G36*
X238481118Y-83955145D02*
G01*
X238580148Y-83973338D01*
X238660394Y-84001175D01*
X238725036Y-84037445D01*
X238770918Y-84076255D01*
X238805993Y-84120559D01*
X238831257Y-84171048D01*
X238846925Y-84228908D01*
X238852409Y-84295732D01*
X238846918Y-84362570D01*
X238831238Y-84420354D01*
X238805970Y-84470696D01*
X238770903Y-84514796D01*
X238725036Y-84553347D01*
X238660442Y-84589297D01*
X238580215Y-84616909D01*
X238481168Y-84634963D01*
X238359588Y-84641519D01*
X238237972Y-84634953D01*
X238139067Y-84616884D01*
X238059110Y-84589272D01*
X237994872Y-84553347D01*
X237949282Y-84514831D01*
X237914401Y-84470754D01*
X237889252Y-84420413D01*
X237873640Y-84362609D01*
X237868171Y-84295732D01*
X238016610Y-84295732D01*
X238020455Y-84327887D01*
X238031426Y-84354535D01*
X238049521Y-84376943D01*
X238073306Y-84394127D01*
X238108134Y-84409527D01*
X238157294Y-84422433D01*
X238238747Y-84432971D01*
X238359588Y-84437149D01*
X238480482Y-84432971D01*
X238561943Y-84422433D01*
X238611061Y-84409531D01*
X238645895Y-84394132D01*
X238669715Y-84376943D01*
X238687811Y-84354535D01*
X238698782Y-84327887D01*
X238702627Y-84295732D01*
X238698851Y-84263484D01*
X238688104Y-84236839D01*
X238670448Y-84214521D01*
X238647042Y-84197311D01*
X238612468Y-84181696D01*
X238563347Y-84168360D01*
X238481711Y-84157308D01*
X238359588Y-84152911D01*
X238236299Y-84157319D01*
X238154546Y-84168360D01*
X238105390Y-84181730D01*
X238071086Y-84197349D01*
X238048117Y-84214521D01*
X238030858Y-84236789D01*
X238020319Y-84263435D01*
X238016610Y-84295732D01*
X237868171Y-84295732D01*
X237873659Y-84228223D01*
X237889309Y-84169998D01*
X237914485Y-84119417D01*
X237949354Y-84075249D01*
X237994872Y-84036774D01*
X238059114Y-84000823D01*
X238139073Y-83973192D01*
X238237976Y-83955111D01*
X238359588Y-83948541D01*
X238481118Y-83955145D01*
G37*
G36*
X219638789Y-118375617D02*
G01*
X219634106Y-118468273D01*
X219620777Y-118549579D01*
X219599662Y-118620971D01*
X219571303Y-118683714D01*
X219535901Y-118738867D01*
X219492440Y-118784316D01*
X219436020Y-118821346D01*
X219364025Y-118849819D01*
X219272957Y-118868546D01*
X219158607Y-118875399D01*
X219047033Y-118868801D01*
X218956726Y-118850645D01*
X218884026Y-118822839D01*
X218825865Y-118786461D01*
X218779909Y-118741676D01*
X218741346Y-118686903D01*
X218710968Y-118626188D01*
X218688697Y-118558727D01*
X218674825Y-118483511D01*
X218670725Y-118412009D01*
X218821186Y-118412009D01*
X218826244Y-118470729D01*
X218840508Y-118519861D01*
X218863265Y-118561220D01*
X218894703Y-118596107D01*
X218932484Y-118621483D01*
X218985866Y-118641883D01*
X219059417Y-118655892D01*
X219158607Y-118661198D01*
X219246477Y-118656852D01*
X219313201Y-118645278D01*
X219362978Y-118628286D01*
X219408335Y-118602508D01*
X219440434Y-118573387D01*
X219461713Y-118540786D01*
X219475601Y-118503517D01*
X219484453Y-118459591D01*
X219487602Y-118407796D01*
X219487602Y-118327990D01*
X218821186Y-118327990D01*
X218821186Y-118412009D01*
X218670725Y-118412009D01*
X218670000Y-118399370D01*
X218670000Y-118122215D01*
X219638789Y-118122215D01*
X219638789Y-118375617D01*
G37*
G36*
X219469406Y-119553967D02*
G01*
X219469406Y-119205371D01*
X219252397Y-119205371D01*
X219270347Y-119251949D01*
X219281012Y-119299375D01*
X219284576Y-119348131D01*
X219280375Y-119399381D01*
X219268175Y-119445497D01*
X219248183Y-119487411D01*
X219220642Y-119524736D01*
X219185723Y-119556610D01*
X219142487Y-119583337D01*
X219095086Y-119602345D01*
X219041118Y-119614225D01*
X218979394Y-119618386D01*
X218915311Y-119613186D01*
X218858075Y-119598137D01*
X218806470Y-119573567D01*
X218760468Y-119539798D01*
X218721667Y-119497874D01*
X218689600Y-119446866D01*
X218666717Y-119390856D01*
X218652527Y-119328034D01*
X218647590Y-119257151D01*
X218653205Y-119185937D01*
X218669608Y-119120793D01*
X218696611Y-119060609D01*
X218734657Y-119004524D01*
X218784794Y-118951969D01*
X218889818Y-119063954D01*
X218849649Y-119106306D01*
X218822083Y-119151120D01*
X218805723Y-119199143D01*
X218800181Y-119251533D01*
X218805754Y-119300869D01*
X218821320Y-119339980D01*
X218846404Y-119371212D01*
X218879719Y-119393984D01*
X218923072Y-119408604D01*
X218979394Y-119413954D01*
X219035196Y-119409096D01*
X219076394Y-119396102D01*
X219106451Y-119376420D01*
X219127728Y-119350111D01*
X219141146Y-119315844D01*
X219146029Y-119271133D01*
X219144052Y-119240942D01*
X219138274Y-119213065D01*
X219128407Y-119185579D01*
X219112384Y-119153531D01*
X219112384Y-119014984D01*
X219613571Y-119014984D01*
X219613571Y-119577780D01*
X219469406Y-119553967D01*
G37*
G36*
X222138789Y-118375617D02*
G01*
X222134106Y-118468273D01*
X222120777Y-118549579D01*
X222099662Y-118620971D01*
X222071303Y-118683714D01*
X222035901Y-118738867D01*
X221992440Y-118784316D01*
X221936020Y-118821346D01*
X221864025Y-118849819D01*
X221772957Y-118868546D01*
X221658607Y-118875399D01*
X221547033Y-118868801D01*
X221456726Y-118850645D01*
X221384026Y-118822839D01*
X221325865Y-118786461D01*
X221279909Y-118741676D01*
X221241346Y-118686903D01*
X221210968Y-118626188D01*
X221188697Y-118558727D01*
X221174825Y-118483511D01*
X221170725Y-118412009D01*
X221321186Y-118412009D01*
X221326244Y-118470729D01*
X221340508Y-118519861D01*
X221363265Y-118561220D01*
X221394703Y-118596107D01*
X221432484Y-118621483D01*
X221485866Y-118641883D01*
X221559417Y-118655892D01*
X221658607Y-118661198D01*
X221746477Y-118656852D01*
X221813201Y-118645278D01*
X221862978Y-118628286D01*
X221908335Y-118602508D01*
X221940434Y-118573387D01*
X221961713Y-118540786D01*
X221975601Y-118503517D01*
X221984453Y-118459591D01*
X221987602Y-118407796D01*
X221987602Y-118327990D01*
X221321186Y-118327990D01*
X221321186Y-118412009D01*
X221170725Y-118412009D01*
X221170000Y-118399370D01*
X221170000Y-118122215D01*
X222138789Y-118122215D01*
X222138789Y-118375617D01*
G37*
G36*
X221708670Y-118994119D02*
G01*
X221800742Y-119010540D01*
X221881906Y-119036660D01*
X221957549Y-119074628D01*
X222018474Y-119120554D01*
X222066676Y-119174535D01*
X222094895Y-119220796D01*
X222115150Y-119270960D01*
X222127559Y-119325734D01*
X222131828Y-119385989D01*
X222124797Y-119465290D01*
X222104570Y-119534660D01*
X222071622Y-119595976D01*
X221949806Y-119523131D01*
X221971078Y-119479032D01*
X221983497Y-119434916D01*
X221987602Y-119390141D01*
X221982936Y-119349431D01*
X221969346Y-119313699D01*
X221946607Y-119281754D01*
X221913414Y-119252937D01*
X221861400Y-119225043D01*
X221793207Y-119204878D01*
X221704769Y-119194136D01*
X221747829Y-119239507D01*
X221777580Y-119288280D01*
X221795365Y-119341323D01*
X221801428Y-119399972D01*
X221797246Y-119450282D01*
X221785051Y-119495949D01*
X221764975Y-119537847D01*
X221737433Y-119575172D01*
X221702515Y-119607047D01*
X221659279Y-119633773D01*
X221611846Y-119652625D01*
X221556563Y-119664544D01*
X221491973Y-119668761D01*
X221427677Y-119663995D01*
X221369200Y-119650123D01*
X221315568Y-119627423D01*
X221266887Y-119595952D01*
X221226068Y-119557199D01*
X221192409Y-119510553D01*
X221167818Y-119458520D01*
X221152778Y-119401048D01*
X221147704Y-119338361D01*
X221293220Y-119338361D01*
X221299190Y-119378469D01*
X221316213Y-119410197D01*
X221345000Y-119435631D01*
X221381073Y-119452895D01*
X221428196Y-119464317D01*
X221489225Y-119468543D01*
X221550591Y-119464393D01*
X221593039Y-119453714D01*
X221621482Y-119438440D01*
X221643225Y-119415688D01*
X221656606Y-119386297D01*
X221661416Y-119348131D01*
X221656399Y-119308059D01*
X221641193Y-119269635D01*
X221614666Y-119231866D01*
X221574588Y-119194136D01*
X221472890Y-119200525D01*
X221403519Y-119213242D01*
X221358311Y-119229856D01*
X221329523Y-119249258D01*
X221309656Y-119273168D01*
X221297515Y-119302341D01*
X221293220Y-119338361D01*
X221147704Y-119338361D01*
X221147590Y-119336957D01*
X221153009Y-119265863D01*
X221168313Y-119205651D01*
X221192627Y-119154437D01*
X221225853Y-119110768D01*
X221268674Y-119073724D01*
X221330344Y-119038504D01*
X221405056Y-119011808D01*
X221495303Y-118994564D01*
X221604019Y-118988361D01*
X221708670Y-118994119D01*
G37*
G36*
X224638789Y-118375617D02*
G01*
X224634106Y-118468273D01*
X224620777Y-118549579D01*
X224599662Y-118620971D01*
X224571303Y-118683714D01*
X224535901Y-118738867D01*
X224492440Y-118784316D01*
X224436020Y-118821346D01*
X224364025Y-118849819D01*
X224272957Y-118868546D01*
X224158607Y-118875399D01*
X224047033Y-118868801D01*
X223956726Y-118850645D01*
X223884026Y-118822839D01*
X223825865Y-118786461D01*
X223779909Y-118741676D01*
X223741346Y-118686903D01*
X223710968Y-118626188D01*
X223688697Y-118558727D01*
X223674825Y-118483511D01*
X223670725Y-118412009D01*
X223821186Y-118412009D01*
X223826244Y-118470729D01*
X223840508Y-118519861D01*
X223863265Y-118561220D01*
X223894703Y-118596107D01*
X223932484Y-118621483D01*
X223985866Y-118641883D01*
X224059417Y-118655892D01*
X224158607Y-118661198D01*
X224246477Y-118656852D01*
X224313201Y-118645278D01*
X224362978Y-118628286D01*
X224408335Y-118602508D01*
X224440434Y-118573387D01*
X224461713Y-118540786D01*
X224475601Y-118503517D01*
X224484453Y-118459591D01*
X224487602Y-118407796D01*
X224487602Y-118327990D01*
X223821186Y-118327990D01*
X223821186Y-118412009D01*
X223670725Y-118412009D01*
X223670000Y-118399370D01*
X223670000Y-118122215D01*
X224638789Y-118122215D01*
X224638789Y-118375617D01*
G37*
G36*
X224613571Y-119518613D02*
G01*
X224476428Y-119518613D01*
X223648995Y-119171421D01*
X223709200Y-118990804D01*
X224462384Y-119312838D01*
X224462384Y-118923637D01*
X224613571Y-118923637D01*
X224613571Y-119518613D01*
G37*
G36*
X227138789Y-118375617D02*
G01*
X227134106Y-118468273D01*
X227120777Y-118549579D01*
X227099662Y-118620971D01*
X227071303Y-118683714D01*
X227035901Y-118738867D01*
X226992440Y-118784316D01*
X226936020Y-118821346D01*
X226864025Y-118849819D01*
X226772957Y-118868546D01*
X226658607Y-118875399D01*
X226547033Y-118868801D01*
X226456726Y-118850645D01*
X226384026Y-118822839D01*
X226325865Y-118786461D01*
X226279909Y-118741676D01*
X226241346Y-118686903D01*
X226210968Y-118626188D01*
X226188697Y-118558727D01*
X226174825Y-118483511D01*
X226170725Y-118412009D01*
X226321186Y-118412009D01*
X226326244Y-118470729D01*
X226340508Y-118519861D01*
X226363265Y-118561220D01*
X226394703Y-118596107D01*
X226432484Y-118621483D01*
X226485866Y-118641883D01*
X226559417Y-118655892D01*
X226658607Y-118661198D01*
X226746477Y-118656852D01*
X226813201Y-118645278D01*
X226862978Y-118628286D01*
X226908335Y-118602508D01*
X226940434Y-118573387D01*
X226961713Y-118540786D01*
X226975601Y-118503517D01*
X226984453Y-118459591D01*
X226987602Y-118407796D01*
X226987602Y-118327990D01*
X226321186Y-118327990D01*
X226321186Y-118412009D01*
X226170725Y-118412009D01*
X226170000Y-118399370D01*
X226170000Y-118122215D01*
X227138789Y-118122215D01*
X227138789Y-118375617D01*
G37*
G36*
X226480319Y-118982679D02*
G01*
X226532610Y-119002749D01*
X226579259Y-119036346D01*
X226621243Y-119085465D01*
X226658607Y-119153531D01*
X226694881Y-119100948D01*
X226734702Y-119062241D01*
X226778368Y-119035344D01*
X226826743Y-119019144D01*
X226881174Y-119013579D01*
X226930216Y-119018386D01*
X226973945Y-119032374D01*
X227013492Y-119055528D01*
X227047951Y-119086367D01*
X227077067Y-119124097D01*
X227100992Y-119169651D01*
X227117842Y-119218607D01*
X227128239Y-119272255D01*
X227131828Y-119331339D01*
X227127418Y-119399926D01*
X227114838Y-119459893D01*
X227094757Y-119512516D01*
X227067409Y-119558852D01*
X227031747Y-119598706D01*
X226991008Y-119626450D01*
X226944190Y-119643300D01*
X226889600Y-119649160D01*
X226840755Y-119643441D01*
X226796026Y-119626482D01*
X226754173Y-119597588D01*
X226714476Y-119554820D01*
X226676803Y-119495165D01*
X226643084Y-119557017D01*
X226607346Y-119604030D01*
X226569703Y-119638658D01*
X226526193Y-119664588D01*
X226478306Y-119680200D01*
X226424806Y-119685553D01*
X226374803Y-119680700D01*
X226328192Y-119666325D01*
X226284061Y-119642138D01*
X226245410Y-119609820D01*
X226212093Y-119568734D01*
X226183982Y-119517575D01*
X226164297Y-119462296D01*
X226151931Y-119399263D01*
X226147925Y-119332744D01*
X226293220Y-119332744D01*
X226297741Y-119380000D01*
X226310162Y-119416798D01*
X226329612Y-119445462D01*
X226356153Y-119467392D01*
X226387834Y-119480676D01*
X226426210Y-119485334D01*
X226464916Y-119481131D01*
X226496088Y-119469344D01*
X226521404Y-119450347D01*
X226541832Y-119424909D01*
X226564208Y-119384942D01*
X226573006Y-119363579D01*
X226727178Y-119363579D01*
X226761912Y-119408315D01*
X226795078Y-119434959D01*
X226833225Y-119450491D01*
X226879769Y-119455964D01*
X226913915Y-119452128D01*
X226941690Y-119441306D01*
X226964521Y-119423724D01*
X226981450Y-119400423D01*
X226992153Y-119370716D01*
X226996029Y-119332744D01*
X226992334Y-119294638D01*
X226982098Y-119264412D01*
X226965926Y-119240359D01*
X226943750Y-119222237D01*
X226915231Y-119210882D01*
X226878426Y-119206775D01*
X226845114Y-119210429D01*
X226817770Y-119220762D01*
X226795078Y-119237550D01*
X226766717Y-119274293D01*
X226737009Y-119335553D01*
X226727178Y-119363579D01*
X226573006Y-119363579D01*
X226588571Y-119325783D01*
X226604019Y-119280964D01*
X226572008Y-119234376D01*
X226533144Y-119202316D01*
X226486283Y-119182810D01*
X226429019Y-119175940D01*
X226388927Y-119180881D01*
X226356380Y-119194891D01*
X226329612Y-119217950D01*
X226310076Y-119247927D01*
X226297691Y-119285503D01*
X226293220Y-119332744D01*
X226147925Y-119332744D01*
X226147590Y-119327187D01*
X226151915Y-119256974D01*
X226164265Y-119195303D01*
X226183982Y-119140952D01*
X226211954Y-119090630D01*
X226244810Y-119050229D01*
X226282657Y-119018464D01*
X226325833Y-118994692D01*
X226371510Y-118980557D01*
X226420593Y-118975783D01*
X226480319Y-118982679D01*
G37*
D11*
X205738094Y-104879580D02*
X205690475Y-104927200D01*
X205690475Y-104927200D02*
X205547618Y-104974819D01*
X205547618Y-104974819D02*
X205452380Y-104974819D01*
X205452380Y-104974819D02*
X205309523Y-104927200D01*
X205309523Y-104927200D02*
X205214285Y-104831961D01*
X205214285Y-104831961D02*
X205166666Y-104736723D01*
X205166666Y-104736723D02*
X205119047Y-104546247D01*
X205119047Y-104546247D02*
X205119047Y-104403390D01*
X205119047Y-104403390D02*
X205166666Y-104212914D01*
X205166666Y-104212914D02*
X205214285Y-104117676D01*
X205214285Y-104117676D02*
X205309523Y-104022438D01*
X205309523Y-104022438D02*
X205452380Y-103974819D01*
X205452380Y-103974819D02*
X205547618Y-103974819D01*
X205547618Y-103974819D02*
X205690475Y-104022438D01*
X205690475Y-104022438D02*
X205738094Y-104070057D01*
X206595237Y-104308152D02*
X206595237Y-104974819D01*
X206357142Y-103927200D02*
X206119047Y-104641485D01*
X206119047Y-104641485D02*
X206738094Y-104641485D01*
X207023809Y-103974819D02*
X207690475Y-103974819D01*
X207690475Y-103974819D02*
X207261904Y-104974819D01*
X208261904Y-103974819D02*
X208357142Y-103974819D01*
X208357142Y-103974819D02*
X208452380Y-104022438D01*
X208452380Y-104022438D02*
X208499999Y-104070057D01*
X208499999Y-104070057D02*
X208547618Y-104165295D01*
X208547618Y-104165295D02*
X208595237Y-104355771D01*
X208595237Y-104355771D02*
X208595237Y-104593866D01*
X208595237Y-104593866D02*
X208547618Y-104784342D01*
X208547618Y-104784342D02*
X208499999Y-104879580D01*
X208499999Y-104879580D02*
X208452380Y-104927200D01*
X208452380Y-104927200D02*
X208357142Y-104974819D01*
X208357142Y-104974819D02*
X208261904Y-104974819D01*
X208261904Y-104974819D02*
X208166666Y-104927200D01*
X208166666Y-104927200D02*
X208119047Y-104879580D01*
X208119047Y-104879580D02*
X208071428Y-104784342D01*
X208071428Y-104784342D02*
X208023809Y-104593866D01*
X208023809Y-104593866D02*
X208023809Y-104355771D01*
X208023809Y-104355771D02*
X208071428Y-104165295D01*
X208071428Y-104165295D02*
X208119047Y-104070057D01*
X208119047Y-104070057D02*
X208166666Y-104022438D01*
X208166666Y-104022438D02*
X208261904Y-103974819D01*
X209452380Y-104308152D02*
X209452380Y-104974819D01*
X209023809Y-104308152D02*
X209023809Y-104831961D01*
X209023809Y-104831961D02*
X209071428Y-104927200D01*
X209071428Y-104927200D02*
X209166666Y-104974819D01*
X209166666Y-104974819D02*
X209309523Y-104974819D01*
X209309523Y-104974819D02*
X209404761Y-104927200D01*
X209404761Y-104927200D02*
X209452380Y-104879580D01*
X210261904Y-104451009D02*
X209928571Y-104451009D01*
X209928571Y-104974819D02*
X209928571Y-103974819D01*
X209928571Y-103974819D02*
X210404761Y-103974819D01*
X210547619Y-105070057D02*
X211309523Y-105070057D01*
X211500000Y-104070057D02*
X211547619Y-104022438D01*
X211547619Y-104022438D02*
X211642857Y-103974819D01*
X211642857Y-103974819D02*
X211880952Y-103974819D01*
X211880952Y-103974819D02*
X211976190Y-104022438D01*
X211976190Y-104022438D02*
X212023809Y-104070057D01*
X212023809Y-104070057D02*
X212071428Y-104165295D01*
X212071428Y-104165295D02*
X212071428Y-104260533D01*
X212071428Y-104260533D02*
X212023809Y-104403390D01*
X212023809Y-104403390D02*
X211452381Y-104974819D01*
X211452381Y-104974819D02*
X212071428Y-104974819D01*
X212976190Y-103974819D02*
X212500000Y-103974819D01*
X212500000Y-103974819D02*
X212452381Y-104451009D01*
X212452381Y-104451009D02*
X212500000Y-104403390D01*
X212500000Y-104403390D02*
X212595238Y-104355771D01*
X212595238Y-104355771D02*
X212833333Y-104355771D01*
X212833333Y-104355771D02*
X212928571Y-104403390D01*
X212928571Y-104403390D02*
X212976190Y-104451009D01*
X212976190Y-104451009D02*
X213023809Y-104546247D01*
X213023809Y-104546247D02*
X213023809Y-104784342D01*
X213023809Y-104784342D02*
X212976190Y-104879580D01*
X212976190Y-104879580D02*
X212928571Y-104927200D01*
X212928571Y-104927200D02*
X212833333Y-104974819D01*
X212833333Y-104974819D02*
X212595238Y-104974819D01*
X212595238Y-104974819D02*
X212500000Y-104927200D01*
X212500000Y-104927200D02*
X212452381Y-104879580D01*
X213309524Y-103974819D02*
X213642857Y-104974819D01*
X213642857Y-104974819D02*
X213976190Y-103974819D01*
X218454819Y-100234285D02*
X218454819Y-100805713D01*
X218454819Y-100519999D02*
X217454819Y-100519999D01*
X217454819Y-100519999D02*
X217597676Y-100615237D01*
X217597676Y-100615237D02*
X217692914Y-100710475D01*
X217692914Y-100710475D02*
X217740533Y-100805713D01*
X217454819Y-99615237D02*
X217454819Y-99424761D01*
X217454819Y-99424761D02*
X217502438Y-99329523D01*
X217502438Y-99329523D02*
X217597676Y-99234285D01*
X217597676Y-99234285D02*
X217788152Y-99186666D01*
X217788152Y-99186666D02*
X218121485Y-99186666D01*
X218121485Y-99186666D02*
X218311961Y-99234285D01*
X218311961Y-99234285D02*
X218407200Y-99329523D01*
X218407200Y-99329523D02*
X218454819Y-99424761D01*
X218454819Y-99424761D02*
X218454819Y-99615237D01*
X218454819Y-99615237D02*
X218407200Y-99710475D01*
X218407200Y-99710475D02*
X218311961Y-99805713D01*
X218311961Y-99805713D02*
X218121485Y-99853332D01*
X218121485Y-99853332D02*
X217788152Y-99853332D01*
X217788152Y-99853332D02*
X217597676Y-99805713D01*
X217597676Y-99805713D02*
X217502438Y-99710475D01*
X217502438Y-99710475D02*
X217454819Y-99615237D01*
X217788152Y-98329523D02*
X218454819Y-98329523D01*
X217788152Y-98758094D02*
X218311961Y-98758094D01*
X218311961Y-98758094D02*
X218407200Y-98710475D01*
X218407200Y-98710475D02*
X218454819Y-98615237D01*
X218454819Y-98615237D02*
X218454819Y-98472380D01*
X218454819Y-98472380D02*
X218407200Y-98377142D01*
X218407200Y-98377142D02*
X218359580Y-98329523D01*
X218454819Y-97853332D02*
X217454819Y-97853332D01*
X217931009Y-97853332D02*
X217931009Y-97281904D01*
X218454819Y-97281904D02*
X217454819Y-97281904D01*
X191335443Y-93129580D02*
X191287824Y-93177200D01*
X191287824Y-93177200D02*
X191144967Y-93224819D01*
X191144967Y-93224819D02*
X191049729Y-93224819D01*
X191049729Y-93224819D02*
X190906872Y-93177200D01*
X190906872Y-93177200D02*
X190811634Y-93081961D01*
X190811634Y-93081961D02*
X190764015Y-92986723D01*
X190764015Y-92986723D02*
X190716396Y-92796247D01*
X190716396Y-92796247D02*
X190716396Y-92653390D01*
X190716396Y-92653390D02*
X190764015Y-92462914D01*
X190764015Y-92462914D02*
X190811634Y-92367676D01*
X190811634Y-92367676D02*
X190906872Y-92272438D01*
X190906872Y-92272438D02*
X191049729Y-92224819D01*
X191049729Y-92224819D02*
X191144967Y-92224819D01*
X191144967Y-92224819D02*
X191287824Y-92272438D01*
X191287824Y-92272438D02*
X191335443Y-92320057D01*
X192192586Y-92558152D02*
X192192586Y-93224819D01*
X191954491Y-92177200D02*
X191716396Y-92891485D01*
X191716396Y-92891485D02*
X192335443Y-92891485D01*
X192621158Y-92224819D02*
X193287824Y-92224819D01*
X193287824Y-92224819D02*
X192859253Y-93224819D01*
X193859253Y-92224819D02*
X193954491Y-92224819D01*
X193954491Y-92224819D02*
X194049729Y-92272438D01*
X194049729Y-92272438D02*
X194097348Y-92320057D01*
X194097348Y-92320057D02*
X194144967Y-92415295D01*
X194144967Y-92415295D02*
X194192586Y-92605771D01*
X194192586Y-92605771D02*
X194192586Y-92843866D01*
X194192586Y-92843866D02*
X194144967Y-93034342D01*
X194144967Y-93034342D02*
X194097348Y-93129580D01*
X194097348Y-93129580D02*
X194049729Y-93177200D01*
X194049729Y-93177200D02*
X193954491Y-93224819D01*
X193954491Y-93224819D02*
X193859253Y-93224819D01*
X193859253Y-93224819D02*
X193764015Y-93177200D01*
X193764015Y-93177200D02*
X193716396Y-93129580D01*
X193716396Y-93129580D02*
X193668777Y-93034342D01*
X193668777Y-93034342D02*
X193621158Y-92843866D01*
X193621158Y-92843866D02*
X193621158Y-92605771D01*
X193621158Y-92605771D02*
X193668777Y-92415295D01*
X193668777Y-92415295D02*
X193716396Y-92320057D01*
X193716396Y-92320057D02*
X193764015Y-92272438D01*
X193764015Y-92272438D02*
X193859253Y-92224819D01*
X195049729Y-92558152D02*
X195049729Y-93224819D01*
X194621158Y-92558152D02*
X194621158Y-93081961D01*
X194621158Y-93081961D02*
X194668777Y-93177200D01*
X194668777Y-93177200D02*
X194764015Y-93224819D01*
X194764015Y-93224819D02*
X194906872Y-93224819D01*
X194906872Y-93224819D02*
X195002110Y-93177200D01*
X195002110Y-93177200D02*
X195049729Y-93129580D01*
X195859253Y-92701009D02*
X195525920Y-92701009D01*
X195525920Y-93224819D02*
X195525920Y-92224819D01*
X195525920Y-92224819D02*
X196002110Y-92224819D01*
X196144968Y-93320057D02*
X196906872Y-93320057D01*
X197097349Y-92320057D02*
X197144968Y-92272438D01*
X197144968Y-92272438D02*
X197240206Y-92224819D01*
X197240206Y-92224819D02*
X197478301Y-92224819D01*
X197478301Y-92224819D02*
X197573539Y-92272438D01*
X197573539Y-92272438D02*
X197621158Y-92320057D01*
X197621158Y-92320057D02*
X197668777Y-92415295D01*
X197668777Y-92415295D02*
X197668777Y-92510533D01*
X197668777Y-92510533D02*
X197621158Y-92653390D01*
X197621158Y-92653390D02*
X197049730Y-93224819D01*
X197049730Y-93224819D02*
X197668777Y-93224819D01*
X198573539Y-92224819D02*
X198097349Y-92224819D01*
X198097349Y-92224819D02*
X198049730Y-92701009D01*
X198049730Y-92701009D02*
X198097349Y-92653390D01*
X198097349Y-92653390D02*
X198192587Y-92605771D01*
X198192587Y-92605771D02*
X198430682Y-92605771D01*
X198430682Y-92605771D02*
X198525920Y-92653390D01*
X198525920Y-92653390D02*
X198573539Y-92701009D01*
X198573539Y-92701009D02*
X198621158Y-92796247D01*
X198621158Y-92796247D02*
X198621158Y-93034342D01*
X198621158Y-93034342D02*
X198573539Y-93129580D01*
X198573539Y-93129580D02*
X198525920Y-93177200D01*
X198525920Y-93177200D02*
X198430682Y-93224819D01*
X198430682Y-93224819D02*
X198192587Y-93224819D01*
X198192587Y-93224819D02*
X198097349Y-93177200D01*
X198097349Y-93177200D02*
X198049730Y-93129580D01*
X198906873Y-92224819D02*
X199240206Y-93224819D01*
X199240206Y-93224819D02*
X199573539Y-92224819D01*
X224595238Y-69829104D02*
X225071428Y-69829104D01*
X224500000Y-70114819D02*
X224833333Y-69114819D01*
X224833333Y-69114819D02*
X225166666Y-70114819D01*
X225357143Y-69448152D02*
X225738095Y-69448152D01*
X225500000Y-69114819D02*
X225500000Y-69971961D01*
X225500000Y-69971961D02*
X225547619Y-70067200D01*
X225547619Y-70067200D02*
X225642857Y-70114819D01*
X225642857Y-70114819D02*
X225738095Y-70114819D01*
X226071429Y-70114819D02*
X226071429Y-69448152D01*
X226071429Y-69543390D02*
X226119048Y-69495771D01*
X226119048Y-69495771D02*
X226214286Y-69448152D01*
X226214286Y-69448152D02*
X226357143Y-69448152D01*
X226357143Y-69448152D02*
X226452381Y-69495771D01*
X226452381Y-69495771D02*
X226500000Y-69591009D01*
X226500000Y-69591009D02*
X226500000Y-70114819D01*
X226500000Y-69591009D02*
X226547619Y-69495771D01*
X226547619Y-69495771D02*
X226642857Y-69448152D01*
X226642857Y-69448152D02*
X226785714Y-69448152D01*
X226785714Y-69448152D02*
X226880953Y-69495771D01*
X226880953Y-69495771D02*
X226928572Y-69591009D01*
X226928572Y-69591009D02*
X226928572Y-70114819D01*
X227785714Y-70067200D02*
X227690476Y-70114819D01*
X227690476Y-70114819D02*
X227500000Y-70114819D01*
X227500000Y-70114819D02*
X227404762Y-70067200D01*
X227404762Y-70067200D02*
X227357143Y-69971961D01*
X227357143Y-69971961D02*
X227357143Y-69591009D01*
X227357143Y-69591009D02*
X227404762Y-69495771D01*
X227404762Y-69495771D02*
X227500000Y-69448152D01*
X227500000Y-69448152D02*
X227690476Y-69448152D01*
X227690476Y-69448152D02*
X227785714Y-69495771D01*
X227785714Y-69495771D02*
X227833333Y-69591009D01*
X227833333Y-69591009D02*
X227833333Y-69686247D01*
X227833333Y-69686247D02*
X227357143Y-69781485D01*
X228690476Y-69448152D02*
X228690476Y-70257676D01*
X228690476Y-70257676D02*
X228642857Y-70352914D01*
X228642857Y-70352914D02*
X228595238Y-70400533D01*
X228595238Y-70400533D02*
X228500000Y-70448152D01*
X228500000Y-70448152D02*
X228357143Y-70448152D01*
X228357143Y-70448152D02*
X228261905Y-70400533D01*
X228690476Y-70067200D02*
X228595238Y-70114819D01*
X228595238Y-70114819D02*
X228404762Y-70114819D01*
X228404762Y-70114819D02*
X228309524Y-70067200D01*
X228309524Y-70067200D02*
X228261905Y-70019580D01*
X228261905Y-70019580D02*
X228214286Y-69924342D01*
X228214286Y-69924342D02*
X228214286Y-69638628D01*
X228214286Y-69638628D02*
X228261905Y-69543390D01*
X228261905Y-69543390D02*
X228309524Y-69495771D01*
X228309524Y-69495771D02*
X228404762Y-69448152D01*
X228404762Y-69448152D02*
X228595238Y-69448152D01*
X228595238Y-69448152D02*
X228690476Y-69495771D01*
X229595238Y-70114819D02*
X229595238Y-69591009D01*
X229595238Y-69591009D02*
X229547619Y-69495771D01*
X229547619Y-69495771D02*
X229452381Y-69448152D01*
X229452381Y-69448152D02*
X229261905Y-69448152D01*
X229261905Y-69448152D02*
X229166667Y-69495771D01*
X229595238Y-70067200D02*
X229500000Y-70114819D01*
X229500000Y-70114819D02*
X229261905Y-70114819D01*
X229261905Y-70114819D02*
X229166667Y-70067200D01*
X229166667Y-70067200D02*
X229119048Y-69971961D01*
X229119048Y-69971961D02*
X229119048Y-69876723D01*
X229119048Y-69876723D02*
X229166667Y-69781485D01*
X229166667Y-69781485D02*
X229261905Y-69733866D01*
X229261905Y-69733866D02*
X229500000Y-69733866D01*
X229500000Y-69733866D02*
X229595238Y-69686247D01*
X229976191Y-69114819D02*
X230595238Y-69114819D01*
X230595238Y-69114819D02*
X230261905Y-69495771D01*
X230261905Y-69495771D02*
X230404762Y-69495771D01*
X230404762Y-69495771D02*
X230500000Y-69543390D01*
X230500000Y-69543390D02*
X230547619Y-69591009D01*
X230547619Y-69591009D02*
X230595238Y-69686247D01*
X230595238Y-69686247D02*
X230595238Y-69924342D01*
X230595238Y-69924342D02*
X230547619Y-70019580D01*
X230547619Y-70019580D02*
X230500000Y-70067200D01*
X230500000Y-70067200D02*
X230404762Y-70114819D01*
X230404762Y-70114819D02*
X230119048Y-70114819D01*
X230119048Y-70114819D02*
X230023810Y-70067200D01*
X230023810Y-70067200D02*
X229976191Y-70019580D01*
X230976191Y-69210057D02*
X231023810Y-69162438D01*
X231023810Y-69162438D02*
X231119048Y-69114819D01*
X231119048Y-69114819D02*
X231357143Y-69114819D01*
X231357143Y-69114819D02*
X231452381Y-69162438D01*
X231452381Y-69162438D02*
X231500000Y-69210057D01*
X231500000Y-69210057D02*
X231547619Y-69305295D01*
X231547619Y-69305295D02*
X231547619Y-69400533D01*
X231547619Y-69400533D02*
X231500000Y-69543390D01*
X231500000Y-69543390D02*
X230928572Y-70114819D01*
X230928572Y-70114819D02*
X231547619Y-70114819D01*
X232119048Y-69543390D02*
X232023810Y-69495771D01*
X232023810Y-69495771D02*
X231976191Y-69448152D01*
X231976191Y-69448152D02*
X231928572Y-69352914D01*
X231928572Y-69352914D02*
X231928572Y-69305295D01*
X231928572Y-69305295D02*
X231976191Y-69210057D01*
X231976191Y-69210057D02*
X232023810Y-69162438D01*
X232023810Y-69162438D02*
X232119048Y-69114819D01*
X232119048Y-69114819D02*
X232309524Y-69114819D01*
X232309524Y-69114819D02*
X232404762Y-69162438D01*
X232404762Y-69162438D02*
X232452381Y-69210057D01*
X232452381Y-69210057D02*
X232500000Y-69305295D01*
X232500000Y-69305295D02*
X232500000Y-69352914D01*
X232500000Y-69352914D02*
X232452381Y-69448152D01*
X232452381Y-69448152D02*
X232404762Y-69495771D01*
X232404762Y-69495771D02*
X232309524Y-69543390D01*
X232309524Y-69543390D02*
X232119048Y-69543390D01*
X232119048Y-69543390D02*
X232023810Y-69591009D01*
X232023810Y-69591009D02*
X231976191Y-69638628D01*
X231976191Y-69638628D02*
X231928572Y-69733866D01*
X231928572Y-69733866D02*
X231928572Y-69924342D01*
X231928572Y-69924342D02*
X231976191Y-70019580D01*
X231976191Y-70019580D02*
X232023810Y-70067200D01*
X232023810Y-70067200D02*
X232119048Y-70114819D01*
X232119048Y-70114819D02*
X232309524Y-70114819D01*
X232309524Y-70114819D02*
X232404762Y-70067200D01*
X232404762Y-70067200D02*
X232452381Y-70019580D01*
X232452381Y-70019580D02*
X232500000Y-69924342D01*
X232500000Y-69924342D02*
X232500000Y-69733866D01*
X232500000Y-69733866D02*
X232452381Y-69638628D01*
X232452381Y-69638628D02*
X232404762Y-69591009D01*
X232404762Y-69591009D02*
X232309524Y-69543390D01*
X232928572Y-69448152D02*
X232928572Y-70448152D01*
X232928572Y-69495771D02*
X233023810Y-69448152D01*
X233023810Y-69448152D02*
X233214286Y-69448152D01*
X233214286Y-69448152D02*
X233309524Y-69495771D01*
X233309524Y-69495771D02*
X233357143Y-69543390D01*
X233357143Y-69543390D02*
X233404762Y-69638628D01*
X233404762Y-69638628D02*
X233404762Y-69924342D01*
X233404762Y-69924342D02*
X233357143Y-70019580D01*
X233357143Y-70019580D02*
X233309524Y-70067200D01*
X233309524Y-70067200D02*
X233214286Y-70114819D01*
X233214286Y-70114819D02*
X233023810Y-70114819D01*
X233023810Y-70114819D02*
X232928572Y-70067200D01*
X208954819Y-79567619D02*
X208954819Y-80139047D01*
X208954819Y-79853333D02*
X207954819Y-79853333D01*
X207954819Y-79853333D02*
X208097676Y-79948571D01*
X208097676Y-79948571D02*
X208192914Y-80043809D01*
X208192914Y-80043809D02*
X208240533Y-80139047D01*
X207954819Y-78948571D02*
X207954819Y-78853333D01*
X207954819Y-78853333D02*
X208002438Y-78758095D01*
X208002438Y-78758095D02*
X208050057Y-78710476D01*
X208050057Y-78710476D02*
X208145295Y-78662857D01*
X208145295Y-78662857D02*
X208335771Y-78615238D01*
X208335771Y-78615238D02*
X208573866Y-78615238D01*
X208573866Y-78615238D02*
X208764342Y-78662857D01*
X208764342Y-78662857D02*
X208859580Y-78710476D01*
X208859580Y-78710476D02*
X208907200Y-78758095D01*
X208907200Y-78758095D02*
X208954819Y-78853333D01*
X208954819Y-78853333D02*
X208954819Y-78948571D01*
X208954819Y-78948571D02*
X208907200Y-79043809D01*
X208907200Y-79043809D02*
X208859580Y-79091428D01*
X208859580Y-79091428D02*
X208764342Y-79139047D01*
X208764342Y-79139047D02*
X208573866Y-79186666D01*
X208573866Y-79186666D02*
X208335771Y-79186666D01*
X208335771Y-79186666D02*
X208145295Y-79139047D01*
X208145295Y-79139047D02*
X208050057Y-79091428D01*
X208050057Y-79091428D02*
X208002438Y-79043809D01*
X208002438Y-79043809D02*
X207954819Y-78948571D01*
X207954819Y-77996190D02*
X207954819Y-77900952D01*
X207954819Y-77900952D02*
X208002438Y-77805714D01*
X208002438Y-77805714D02*
X208050057Y-77758095D01*
X208050057Y-77758095D02*
X208145295Y-77710476D01*
X208145295Y-77710476D02*
X208335771Y-77662857D01*
X208335771Y-77662857D02*
X208573866Y-77662857D01*
X208573866Y-77662857D02*
X208764342Y-77710476D01*
X208764342Y-77710476D02*
X208859580Y-77758095D01*
X208859580Y-77758095D02*
X208907200Y-77805714D01*
X208907200Y-77805714D02*
X208954819Y-77900952D01*
X208954819Y-77900952D02*
X208954819Y-77996190D01*
X208954819Y-77996190D02*
X208907200Y-78091428D01*
X208907200Y-78091428D02*
X208859580Y-78139047D01*
X208859580Y-78139047D02*
X208764342Y-78186666D01*
X208764342Y-78186666D02*
X208573866Y-78234285D01*
X208573866Y-78234285D02*
X208335771Y-78234285D01*
X208335771Y-78234285D02*
X208145295Y-78186666D01*
X208145295Y-78186666D02*
X208050057Y-78139047D01*
X208050057Y-78139047D02*
X208002438Y-78091428D01*
X208002438Y-78091428D02*
X207954819Y-77996190D01*
X208288152Y-77234285D02*
X208954819Y-77234285D01*
X208383390Y-77234285D02*
X208335771Y-77186666D01*
X208335771Y-77186666D02*
X208288152Y-77091428D01*
X208288152Y-77091428D02*
X208288152Y-76948571D01*
X208288152Y-76948571D02*
X208335771Y-76853333D01*
X208335771Y-76853333D02*
X208431009Y-76805714D01*
X208431009Y-76805714D02*
X208954819Y-76805714D01*
X208431009Y-75996190D02*
X208431009Y-76329523D01*
X208954819Y-76329523D02*
X207954819Y-76329523D01*
X207954819Y-76329523D02*
X207954819Y-75853333D01*
X208833333Y-85474819D02*
X209452380Y-85474819D01*
X209452380Y-85474819D02*
X209119047Y-85855771D01*
X209119047Y-85855771D02*
X209261904Y-85855771D01*
X209261904Y-85855771D02*
X209357142Y-85903390D01*
X209357142Y-85903390D02*
X209404761Y-85951009D01*
X209404761Y-85951009D02*
X209452380Y-86046247D01*
X209452380Y-86046247D02*
X209452380Y-86284342D01*
X209452380Y-86284342D02*
X209404761Y-86379580D01*
X209404761Y-86379580D02*
X209357142Y-86427200D01*
X209357142Y-86427200D02*
X209261904Y-86474819D01*
X209261904Y-86474819D02*
X208976190Y-86474819D01*
X208976190Y-86474819D02*
X208880952Y-86427200D01*
X208880952Y-86427200D02*
X208833333Y-86379580D01*
X209785714Y-85474819D02*
X210404761Y-85474819D01*
X210404761Y-85474819D02*
X210071428Y-85855771D01*
X210071428Y-85855771D02*
X210214285Y-85855771D01*
X210214285Y-85855771D02*
X210309523Y-85903390D01*
X210309523Y-85903390D02*
X210357142Y-85951009D01*
X210357142Y-85951009D02*
X210404761Y-86046247D01*
X210404761Y-86046247D02*
X210404761Y-86284342D01*
X210404761Y-86284342D02*
X210357142Y-86379580D01*
X210357142Y-86379580D02*
X210309523Y-86427200D01*
X210309523Y-86427200D02*
X210214285Y-86474819D01*
X210214285Y-86474819D02*
X209928571Y-86474819D01*
X209928571Y-86474819D02*
X209833333Y-86427200D01*
X209833333Y-86427200D02*
X209785714Y-86379580D01*
X211023809Y-85474819D02*
X211119047Y-85474819D01*
X211119047Y-85474819D02*
X211214285Y-85522438D01*
X211214285Y-85522438D02*
X211261904Y-85570057D01*
X211261904Y-85570057D02*
X211309523Y-85665295D01*
X211309523Y-85665295D02*
X211357142Y-85855771D01*
X211357142Y-85855771D02*
X211357142Y-86093866D01*
X211357142Y-86093866D02*
X211309523Y-86284342D01*
X211309523Y-86284342D02*
X211261904Y-86379580D01*
X211261904Y-86379580D02*
X211214285Y-86427200D01*
X211214285Y-86427200D02*
X211119047Y-86474819D01*
X211119047Y-86474819D02*
X211023809Y-86474819D01*
X211023809Y-86474819D02*
X210928571Y-86427200D01*
X210928571Y-86427200D02*
X210880952Y-86379580D01*
X210880952Y-86379580D02*
X210833333Y-86284342D01*
X210833333Y-86284342D02*
X210785714Y-86093866D01*
X210785714Y-86093866D02*
X210785714Y-85855771D01*
X210785714Y-85855771D02*
X210833333Y-85665295D01*
X210833333Y-85665295D02*
X210880952Y-85570057D01*
X210880952Y-85570057D02*
X210928571Y-85522438D01*
X210928571Y-85522438D02*
X211023809Y-85474819D01*
X213119047Y-86474819D02*
X212785714Y-85998628D01*
X212547619Y-86474819D02*
X212547619Y-85474819D01*
X212547619Y-85474819D02*
X212928571Y-85474819D01*
X212928571Y-85474819D02*
X213023809Y-85522438D01*
X213023809Y-85522438D02*
X213071428Y-85570057D01*
X213071428Y-85570057D02*
X213119047Y-85665295D01*
X213119047Y-85665295D02*
X213119047Y-85808152D01*
X213119047Y-85808152D02*
X213071428Y-85903390D01*
X213071428Y-85903390D02*
X213023809Y-85951009D01*
X213023809Y-85951009D02*
X212928571Y-85998628D01*
X212928571Y-85998628D02*
X212547619Y-85998628D01*
X210454819Y-99769524D02*
X210454819Y-100340952D01*
X210454819Y-100055238D02*
X209454819Y-100055238D01*
X209454819Y-100055238D02*
X209597676Y-100150476D01*
X209597676Y-100150476D02*
X209692914Y-100245714D01*
X209692914Y-100245714D02*
X209740533Y-100340952D01*
X209454819Y-98912381D02*
X209454819Y-99102857D01*
X209454819Y-99102857D02*
X209502438Y-99198095D01*
X209502438Y-99198095D02*
X209550057Y-99245714D01*
X209550057Y-99245714D02*
X209692914Y-99340952D01*
X209692914Y-99340952D02*
X209883390Y-99388571D01*
X209883390Y-99388571D02*
X210264342Y-99388571D01*
X210264342Y-99388571D02*
X210359580Y-99340952D01*
X210359580Y-99340952D02*
X210407200Y-99293333D01*
X210407200Y-99293333D02*
X210454819Y-99198095D01*
X210454819Y-99198095D02*
X210454819Y-99007619D01*
X210454819Y-99007619D02*
X210407200Y-98912381D01*
X210407200Y-98912381D02*
X210359580Y-98864762D01*
X210359580Y-98864762D02*
X210264342Y-98817143D01*
X210264342Y-98817143D02*
X210026247Y-98817143D01*
X210026247Y-98817143D02*
X209931009Y-98864762D01*
X209931009Y-98864762D02*
X209883390Y-98912381D01*
X209883390Y-98912381D02*
X209835771Y-99007619D01*
X209835771Y-99007619D02*
X209835771Y-99198095D01*
X209835771Y-99198095D02*
X209883390Y-99293333D01*
X209883390Y-99293333D02*
X209931009Y-99340952D01*
X209931009Y-99340952D02*
X210026247Y-99388571D01*
X210454819Y-97626666D02*
X209454819Y-97626666D01*
X209454819Y-97626666D02*
X210169104Y-97293333D01*
X210169104Y-97293333D02*
X209454819Y-96960000D01*
X209454819Y-96960000D02*
X210454819Y-96960000D01*
X210454819Y-96483809D02*
X209454819Y-96483809D01*
X209931009Y-96483809D02*
X209931009Y-95912381D01*
X210454819Y-95912381D02*
X209454819Y-95912381D01*
X209788152Y-95531428D02*
X209788152Y-95007619D01*
X209788152Y-95007619D02*
X210454819Y-95531428D01*
X210454819Y-95531428D02*
X210454819Y-95007619D01*
X210835771Y-93579047D02*
X210788152Y-93626666D01*
X210788152Y-93626666D02*
X210645295Y-93721904D01*
X210645295Y-93721904D02*
X210550057Y-93769523D01*
X210550057Y-93769523D02*
X210407200Y-93817142D01*
X210407200Y-93817142D02*
X210169104Y-93864761D01*
X210169104Y-93864761D02*
X209978628Y-93864761D01*
X209978628Y-93864761D02*
X209740533Y-93817142D01*
X209740533Y-93817142D02*
X209597676Y-93769523D01*
X209597676Y-93769523D02*
X209502438Y-93721904D01*
X209502438Y-93721904D02*
X209359580Y-93626666D01*
X209359580Y-93626666D02*
X209311961Y-93579047D01*
X209454819Y-93293332D02*
X210454819Y-92626666D01*
X209454819Y-92626666D02*
X210454819Y-93293332D01*
X209454819Y-92388570D02*
X209454819Y-91817142D01*
X210454819Y-92102856D02*
X209454819Y-92102856D01*
X210169104Y-91531427D02*
X210169104Y-91055237D01*
X210454819Y-91626665D02*
X209454819Y-91293332D01*
X209454819Y-91293332D02*
X210454819Y-90959999D01*
X210454819Y-90150475D02*
X210454819Y-90626665D01*
X210454819Y-90626665D02*
X209454819Y-90626665D01*
X210835771Y-89912379D02*
X210788152Y-89864760D01*
X210788152Y-89864760D02*
X210645295Y-89769522D01*
X210645295Y-89769522D02*
X210550057Y-89721903D01*
X210550057Y-89721903D02*
X210407200Y-89674284D01*
X210407200Y-89674284D02*
X210169104Y-89626665D01*
X210169104Y-89626665D02*
X209978628Y-89626665D01*
X209978628Y-89626665D02*
X209740533Y-89674284D01*
X209740533Y-89674284D02*
X209597676Y-89721903D01*
X209597676Y-89721903D02*
X209502438Y-89769522D01*
X209502438Y-89769522D02*
X209359580Y-89864760D01*
X209359580Y-89864760D02*
X209311961Y-89912379D01*
X206261904Y-73704819D02*
X205928571Y-73228628D01*
X205690476Y-73704819D02*
X205690476Y-72704819D01*
X205690476Y-72704819D02*
X206071428Y-72704819D01*
X206071428Y-72704819D02*
X206166666Y-72752438D01*
X206166666Y-72752438D02*
X206214285Y-72800057D01*
X206214285Y-72800057D02*
X206261904Y-72895295D01*
X206261904Y-72895295D02*
X206261904Y-73038152D01*
X206261904Y-73038152D02*
X206214285Y-73133390D01*
X206214285Y-73133390D02*
X206166666Y-73181009D01*
X206166666Y-73181009D02*
X206071428Y-73228628D01*
X206071428Y-73228628D02*
X205690476Y-73228628D01*
X207071428Y-73657200D02*
X206976190Y-73704819D01*
X206976190Y-73704819D02*
X206785714Y-73704819D01*
X206785714Y-73704819D02*
X206690476Y-73657200D01*
X206690476Y-73657200D02*
X206642857Y-73561961D01*
X206642857Y-73561961D02*
X206642857Y-73181009D01*
X206642857Y-73181009D02*
X206690476Y-73085771D01*
X206690476Y-73085771D02*
X206785714Y-73038152D01*
X206785714Y-73038152D02*
X206976190Y-73038152D01*
X206976190Y-73038152D02*
X207071428Y-73085771D01*
X207071428Y-73085771D02*
X207119047Y-73181009D01*
X207119047Y-73181009D02*
X207119047Y-73276247D01*
X207119047Y-73276247D02*
X206642857Y-73371485D01*
X207500000Y-73657200D02*
X207595238Y-73704819D01*
X207595238Y-73704819D02*
X207785714Y-73704819D01*
X207785714Y-73704819D02*
X207880952Y-73657200D01*
X207880952Y-73657200D02*
X207928571Y-73561961D01*
X207928571Y-73561961D02*
X207928571Y-73514342D01*
X207928571Y-73514342D02*
X207880952Y-73419104D01*
X207880952Y-73419104D02*
X207785714Y-73371485D01*
X207785714Y-73371485D02*
X207642857Y-73371485D01*
X207642857Y-73371485D02*
X207547619Y-73323866D01*
X207547619Y-73323866D02*
X207500000Y-73228628D01*
X207500000Y-73228628D02*
X207500000Y-73181009D01*
X207500000Y-73181009D02*
X207547619Y-73085771D01*
X207547619Y-73085771D02*
X207642857Y-73038152D01*
X207642857Y-73038152D02*
X207785714Y-73038152D01*
X207785714Y-73038152D02*
X207880952Y-73085771D01*
X208738095Y-73657200D02*
X208642857Y-73704819D01*
X208642857Y-73704819D02*
X208452381Y-73704819D01*
X208452381Y-73704819D02*
X208357143Y-73657200D01*
X208357143Y-73657200D02*
X208309524Y-73561961D01*
X208309524Y-73561961D02*
X208309524Y-73181009D01*
X208309524Y-73181009D02*
X208357143Y-73085771D01*
X208357143Y-73085771D02*
X208452381Y-73038152D01*
X208452381Y-73038152D02*
X208642857Y-73038152D01*
X208642857Y-73038152D02*
X208738095Y-73085771D01*
X208738095Y-73085771D02*
X208785714Y-73181009D01*
X208785714Y-73181009D02*
X208785714Y-73276247D01*
X208785714Y-73276247D02*
X208309524Y-73371485D01*
X209071429Y-73038152D02*
X209452381Y-73038152D01*
X209214286Y-72704819D02*
X209214286Y-73561961D01*
X209214286Y-73561961D02*
X209261905Y-73657200D01*
X209261905Y-73657200D02*
X209357143Y-73704819D01*
X209357143Y-73704819D02*
X209452381Y-73704819D01*
X195198095Y-104804819D02*
X195198095Y-105614342D01*
X195198095Y-105614342D02*
X195245714Y-105709580D01*
X195245714Y-105709580D02*
X195293333Y-105757200D01*
X195293333Y-105757200D02*
X195388571Y-105804819D01*
X195388571Y-105804819D02*
X195579047Y-105804819D01*
X195579047Y-105804819D02*
X195674285Y-105757200D01*
X195674285Y-105757200D02*
X195721904Y-105709580D01*
X195721904Y-105709580D02*
X195769523Y-105614342D01*
X195769523Y-105614342D02*
X195769523Y-104804819D01*
X196198095Y-104900057D02*
X196245714Y-104852438D01*
X196245714Y-104852438D02*
X196340952Y-104804819D01*
X196340952Y-104804819D02*
X196579047Y-104804819D01*
X196579047Y-104804819D02*
X196674285Y-104852438D01*
X196674285Y-104852438D02*
X196721904Y-104900057D01*
X196721904Y-104900057D02*
X196769523Y-104995295D01*
X196769523Y-104995295D02*
X196769523Y-105090533D01*
X196769523Y-105090533D02*
X196721904Y-105233390D01*
X196721904Y-105233390D02*
X196150476Y-105804819D01*
X196150476Y-105804819D02*
X196769523Y-105804819D01*
X218452380Y-65474819D02*
X217880952Y-65474819D01*
X218166666Y-65474819D02*
X218166666Y-64474819D01*
X218166666Y-64474819D02*
X218071428Y-64617676D01*
X218071428Y-64617676D02*
X217976190Y-64712914D01*
X217976190Y-64712914D02*
X217880952Y-64760533D01*
X219071428Y-64474819D02*
X219166666Y-64474819D01*
X219166666Y-64474819D02*
X219261904Y-64522438D01*
X219261904Y-64522438D02*
X219309523Y-64570057D01*
X219309523Y-64570057D02*
X219357142Y-64665295D01*
X219357142Y-64665295D02*
X219404761Y-64855771D01*
X219404761Y-64855771D02*
X219404761Y-65093866D01*
X219404761Y-65093866D02*
X219357142Y-65284342D01*
X219357142Y-65284342D02*
X219309523Y-65379580D01*
X219309523Y-65379580D02*
X219261904Y-65427200D01*
X219261904Y-65427200D02*
X219166666Y-65474819D01*
X219166666Y-65474819D02*
X219071428Y-65474819D01*
X219071428Y-65474819D02*
X218976190Y-65427200D01*
X218976190Y-65427200D02*
X218928571Y-65379580D01*
X218928571Y-65379580D02*
X218880952Y-65284342D01*
X218880952Y-65284342D02*
X218833333Y-65093866D01*
X218833333Y-65093866D02*
X218833333Y-64855771D01*
X218833333Y-64855771D02*
X218880952Y-64665295D01*
X218880952Y-64665295D02*
X218928571Y-64570057D01*
X218928571Y-64570057D02*
X218976190Y-64522438D01*
X218976190Y-64522438D02*
X219071428Y-64474819D01*
X220023809Y-64474819D02*
X220119047Y-64474819D01*
X220119047Y-64474819D02*
X220214285Y-64522438D01*
X220214285Y-64522438D02*
X220261904Y-64570057D01*
X220261904Y-64570057D02*
X220309523Y-64665295D01*
X220309523Y-64665295D02*
X220357142Y-64855771D01*
X220357142Y-64855771D02*
X220357142Y-65093866D01*
X220357142Y-65093866D02*
X220309523Y-65284342D01*
X220309523Y-65284342D02*
X220261904Y-65379580D01*
X220261904Y-65379580D02*
X220214285Y-65427200D01*
X220214285Y-65427200D02*
X220119047Y-65474819D01*
X220119047Y-65474819D02*
X220023809Y-65474819D01*
X220023809Y-65474819D02*
X219928571Y-65427200D01*
X219928571Y-65427200D02*
X219880952Y-65379580D01*
X219880952Y-65379580D02*
X219833333Y-65284342D01*
X219833333Y-65284342D02*
X219785714Y-65093866D01*
X219785714Y-65093866D02*
X219785714Y-64855771D01*
X219785714Y-64855771D02*
X219833333Y-64665295D01*
X219833333Y-64665295D02*
X219880952Y-64570057D01*
X219880952Y-64570057D02*
X219928571Y-64522438D01*
X219928571Y-64522438D02*
X220023809Y-64474819D01*
X220785714Y-64808152D02*
X220785714Y-65474819D01*
X220785714Y-64903390D02*
X220833333Y-64855771D01*
X220833333Y-64855771D02*
X220928571Y-64808152D01*
X220928571Y-64808152D02*
X221071428Y-64808152D01*
X221071428Y-64808152D02*
X221166666Y-64855771D01*
X221166666Y-64855771D02*
X221214285Y-64951009D01*
X221214285Y-64951009D02*
X221214285Y-65474819D01*
X222023809Y-64951009D02*
X221690476Y-64951009D01*
X221690476Y-65474819D02*
X221690476Y-64474819D01*
X221690476Y-64474819D02*
X222166666Y-64474819D01*
%TO.C,C470uF_25V*%
D12*
X208460000Y-110990000D02*
X205483000Y-110990000D01*
X208460000Y-111030000D02*
X205491000Y-111030000D01*
X208460000Y-111070000D02*
X205498000Y-111070000D01*
X208460000Y-111110000D02*
X205507000Y-111110000D01*
X208460000Y-111150000D02*
X205515000Y-111150000D01*
X208460000Y-111190000D02*
X205524000Y-111190000D01*
X208460000Y-111230000D02*
X205533000Y-111230000D01*
X208460000Y-111270000D02*
X205543000Y-111270000D01*
X208460000Y-111310000D02*
X205553000Y-111310000D01*
X208460000Y-111350000D02*
X205564000Y-111350000D01*
X208460000Y-111390000D02*
X205575000Y-111390000D01*
X208460000Y-111430000D02*
X205587000Y-111430000D01*
X208460000Y-111470000D02*
X205599000Y-111470000D01*
X208460000Y-111510000D02*
X205611000Y-111510000D01*
X208460000Y-111550000D02*
X205624000Y-111550000D01*
X208460000Y-111590000D02*
X205637000Y-111590000D01*
X208460000Y-111630000D02*
X205651000Y-111630000D01*
X208460000Y-111670000D02*
X205665000Y-111670000D01*
X208460000Y-111710000D02*
X205680000Y-111710000D01*
X208460000Y-111750000D02*
X205695000Y-111750000D01*
X208460000Y-111790000D02*
X205711000Y-111790000D01*
X208460000Y-111830000D02*
X205727000Y-111830000D01*
X208460000Y-111870000D02*
X205743000Y-111870000D01*
X208460000Y-111910000D02*
X205760000Y-111910000D01*
X208460000Y-111950000D02*
X205778000Y-111950000D01*
X208460000Y-111990000D02*
X205796000Y-111990000D01*
X208460000Y-112030000D02*
X205815000Y-112030000D01*
X208460000Y-112070000D02*
X205834000Y-112070000D01*
X208460000Y-112110000D02*
X205854000Y-112110000D01*
X208460000Y-112150000D02*
X205874000Y-112150000D01*
X208460000Y-112190000D02*
X205895000Y-112190000D01*
X208460000Y-112230000D02*
X205916000Y-112230000D01*
X208460000Y-112270000D02*
X205938000Y-112270000D01*
X208460000Y-112310000D02*
X205961000Y-112310000D01*
X208460000Y-112350000D02*
X205984000Y-112350000D01*
X208460000Y-112390000D02*
X206007000Y-112390000D01*
X208460000Y-112430000D02*
X206032000Y-112430000D01*
X208460000Y-112470000D02*
X206057000Y-112470000D01*
X208460000Y-112510000D02*
X206082000Y-112510000D01*
X208460000Y-112550000D02*
X206108000Y-112550000D01*
X208460000Y-112590000D02*
X206135000Y-112590000D01*
X208460000Y-112630000D02*
X206163000Y-112630000D01*
X208460000Y-112670000D02*
X206191000Y-112670000D01*
X208460000Y-112710000D02*
X206220000Y-112710000D01*
X208460000Y-112750000D02*
X206250000Y-112750000D01*
X208460000Y-112790000D02*
X206281000Y-112790000D01*
X208460000Y-112830000D02*
X206312000Y-112830000D01*
X208460000Y-112870000D02*
X206344000Y-112870000D01*
X208460000Y-112910000D02*
X206377000Y-112910000D01*
X208460000Y-112950000D02*
X206411000Y-112950000D01*
X208460000Y-112990000D02*
X206445000Y-112990000D01*
X208460000Y-113030000D02*
X206481000Y-113030000D01*
X210033000Y-114350000D02*
X208967000Y-114350000D01*
X210268000Y-114310000D02*
X208732000Y-114310000D01*
X210447000Y-114270000D02*
X208553000Y-114270000D01*
X210597000Y-114230000D02*
X208403000Y-114230000D01*
X210728000Y-114190000D02*
X208272000Y-114190000D01*
X210846000Y-114150000D02*
X208154000Y-114150000D01*
X210953000Y-114110000D02*
X208047000Y-114110000D01*
X211052000Y-114070000D02*
X207948000Y-114070000D01*
X211144000Y-114030000D02*
X207856000Y-114030000D01*
X211231000Y-113990000D02*
X207769000Y-113990000D01*
X211313000Y-113950000D02*
X207687000Y-113950000D01*
X211390000Y-113910000D02*
X207610000Y-113910000D01*
X211464000Y-113870000D02*
X207536000Y-113870000D01*
X211534000Y-113830000D02*
X207466000Y-113830000D01*
X211601000Y-113790000D02*
X207399000Y-113790000D01*
X211665000Y-113750000D02*
X207335000Y-113750000D01*
X211727000Y-113710000D02*
X207273000Y-113710000D01*
X211787000Y-113670000D02*
X207213000Y-113670000D01*
X211815000Y-105860302D02*
X211815000Y-106660302D01*
X211844000Y-113630000D02*
X207156000Y-113630000D01*
X211900000Y-113590000D02*
X207100000Y-113590000D01*
X211953000Y-113550000D02*
X207047000Y-113550000D01*
X212005000Y-113510000D02*
X206995000Y-113510000D01*
X212055000Y-113470000D02*
X206945000Y-113470000D01*
X212104000Y-113430000D02*
X206896000Y-113430000D01*
X212151000Y-113390000D02*
X206849000Y-113390000D01*
X212196000Y-113350000D02*
X206804000Y-113350000D01*
X212215000Y-106260302D02*
X211415000Y-106260302D01*
X212241000Y-113310000D02*
X206759000Y-113310000D01*
X212284000Y-113270000D02*
X206716000Y-113270000D01*
X212326000Y-113230000D02*
X206674000Y-113230000D01*
X212367000Y-113190000D02*
X206633000Y-113190000D01*
X212406000Y-113150000D02*
X206594000Y-113150000D01*
X212445000Y-113110000D02*
X206555000Y-113110000D01*
X212482000Y-113070000D02*
X206518000Y-113070000D01*
X212519000Y-113030000D02*
X210540000Y-113030000D01*
X212555000Y-112990000D02*
X210540000Y-112990000D01*
X212589000Y-112950000D02*
X210540000Y-112950000D01*
X212623000Y-112910000D02*
X210540000Y-112910000D01*
X212656000Y-112870000D02*
X210540000Y-112870000D01*
X212688000Y-112830000D02*
X210540000Y-112830000D01*
X212719000Y-112790000D02*
X210540000Y-112790000D01*
X212750000Y-112750000D02*
X210540000Y-112750000D01*
X212780000Y-112710000D02*
X210540000Y-112710000D01*
X212809000Y-112670000D02*
X210540000Y-112670000D01*
X212837000Y-112630000D02*
X210540000Y-112630000D01*
X212865000Y-112590000D02*
X210540000Y-112590000D01*
X212892000Y-112550000D02*
X210540000Y-112550000D01*
X212918000Y-112510000D02*
X210540000Y-112510000D01*
X212943000Y-112470000D02*
X210540000Y-112470000D01*
X212968000Y-112430000D02*
X210540000Y-112430000D01*
X212993000Y-112390000D02*
X210540000Y-112390000D01*
X213016000Y-112350000D02*
X210540000Y-112350000D01*
X213039000Y-112310000D02*
X210540000Y-112310000D01*
X213062000Y-112270000D02*
X210540000Y-112270000D01*
X213084000Y-112230000D02*
X210540000Y-112230000D01*
X213105000Y-112190000D02*
X210540000Y-112190000D01*
X213126000Y-112150000D02*
X210540000Y-112150000D01*
X213146000Y-112110000D02*
X210540000Y-112110000D01*
X213166000Y-112070000D02*
X210540000Y-112070000D01*
X213185000Y-112030000D02*
X210540000Y-112030000D01*
X213204000Y-111990000D02*
X210540000Y-111990000D01*
X213222000Y-111950000D02*
X210540000Y-111950000D01*
X213240000Y-111910000D02*
X210540000Y-111910000D01*
X213257000Y-111870000D02*
X210540000Y-111870000D01*
X213273000Y-111830000D02*
X210540000Y-111830000D01*
X213289000Y-111790000D02*
X210540000Y-111790000D01*
X213305000Y-111750000D02*
X210540000Y-111750000D01*
X213320000Y-111710000D02*
X210540000Y-111710000D01*
X213335000Y-111670000D02*
X210540000Y-111670000D01*
X213349000Y-111630000D02*
X210540000Y-111630000D01*
X213363000Y-111590000D02*
X210540000Y-111590000D01*
X213376000Y-111550000D02*
X210540000Y-111550000D01*
X213389000Y-111510000D02*
X210540000Y-111510000D01*
X213401000Y-111470000D02*
X210540000Y-111470000D01*
X213413000Y-111430000D02*
X210540000Y-111430000D01*
X213425000Y-111390000D02*
X210540000Y-111390000D01*
X213436000Y-111350000D02*
X210540000Y-111350000D01*
X213447000Y-111310000D02*
X210540000Y-111310000D01*
X213457000Y-111270000D02*
X210540000Y-111270000D01*
X213467000Y-111230000D02*
X210540000Y-111230000D01*
X213476000Y-111190000D02*
X210540000Y-111190000D01*
X213485000Y-111150000D02*
X210540000Y-111150000D01*
X213493000Y-111110000D02*
X210540000Y-111110000D01*
X213502000Y-111070000D02*
X210540000Y-111070000D01*
X213509000Y-111030000D02*
X210540000Y-111030000D01*
X213517000Y-110990000D02*
X210540000Y-110990000D01*
X213523000Y-110950000D02*
X205477000Y-110950000D01*
X213530000Y-110910000D02*
X205470000Y-110910000D01*
X213536000Y-110870000D02*
X205464000Y-110870000D01*
X213542000Y-110830000D02*
X205458000Y-110830000D01*
X213547000Y-110790000D02*
X205453000Y-110790000D01*
X213552000Y-110750000D02*
X205448000Y-110750000D01*
X213556000Y-110710000D02*
X205444000Y-110710000D01*
X213561000Y-110670000D02*
X205439000Y-110670000D01*
X213564000Y-110630000D02*
X205436000Y-110630000D01*
X213568000Y-110590000D02*
X205432000Y-110590000D01*
X213570000Y-110550000D02*
X205430000Y-110550000D01*
X213573000Y-110510000D02*
X205427000Y-110510000D01*
X213575000Y-110470000D02*
X205425000Y-110470000D01*
X213577000Y-110430000D02*
X205423000Y-110430000D01*
X213578000Y-110390000D02*
X205422000Y-110390000D01*
X213579000Y-110350000D02*
X205421000Y-110350000D01*
X213580000Y-110270000D02*
X205420000Y-110270000D01*
X213580000Y-110310000D02*
X205420000Y-110310000D01*
X213620000Y-110270000D02*
G75*
G02*
X205380000Y-110270000I-4120000J0D01*
G01*
X205380000Y-110270000D02*
G75*
G02*
X213620000Y-110270000I4120000J0D01*
G01*
%TO.C,1OuH*%
X219077500Y-95572500D02*
X219077500Y-102412500D01*
X219077500Y-102412500D02*
X222017500Y-102412500D01*
X220547500Y-94952500D02*
X220547500Y-95572500D01*
X220547500Y-95690500D02*
X220547500Y-95572500D01*
X220547500Y-102294500D02*
X220547500Y-102421500D01*
X220547500Y-103032500D02*
X220547500Y-102412500D01*
X222017500Y-95572500D02*
X219077500Y-95572500D01*
X222017500Y-102412500D02*
X222017500Y-95572500D01*
X220547500Y-97341500D02*
G75*
G02*
X220547500Y-95690500I0J825500D01*
G01*
X220547500Y-98992500D02*
G75*
G02*
X220547500Y-97341500I0J825500D01*
G01*
X220547500Y-100643500D02*
G75*
G02*
X220547500Y-98992500I0J825500D01*
G01*
X220547500Y-102294500D02*
G75*
G02*
X220547500Y-100643500I0J825500D01*
G01*
%TO.C,D1*%
D13*
X199499998Y-70150000D02*
X196500000Y-70150000D01*
X199500000Y-70150000D02*
G75*
G02*
X196500000Y-70150000I-1500000J-2600000D01*
G01*
%TO.C,C4*%
D12*
X208140580Y-92010000D02*
X207859420Y-92010000D01*
X208140580Y-93030000D02*
X207859420Y-93030000D01*
%TO.C,C470uF_25V*%
X190687651Y-95705000D02*
X191487651Y-95705000D01*
X191087651Y-95305000D02*
X191087651Y-96105000D01*
X195097349Y-93940000D02*
X195097349Y-102100000D01*
X195137349Y-93940000D02*
X195137349Y-102100000D01*
X195177349Y-93941000D02*
X195177349Y-102099000D01*
X195217349Y-93942000D02*
X195217349Y-102098000D01*
X195257349Y-93943000D02*
X195257349Y-102097000D01*
X195297349Y-93945000D02*
X195297349Y-102095000D01*
X195337349Y-93947000D02*
X195337349Y-102093000D01*
X195377349Y-93950000D02*
X195377349Y-102090000D01*
X195417349Y-93952000D02*
X195417349Y-102088000D01*
X195457349Y-93956000D02*
X195457349Y-102084000D01*
X195497349Y-93959000D02*
X195497349Y-102081000D01*
X195537349Y-93964000D02*
X195537349Y-102076000D01*
X195577349Y-93968000D02*
X195577349Y-102072000D01*
X195617349Y-93973000D02*
X195617349Y-102067000D01*
X195657349Y-93978000D02*
X195657349Y-102062000D01*
X195697349Y-93984000D02*
X195697349Y-102056000D01*
X195737349Y-93990000D02*
X195737349Y-102050000D01*
X195777349Y-93997000D02*
X195777349Y-102043000D01*
X195817349Y-94003000D02*
X195817349Y-96980000D01*
X195817349Y-99060000D02*
X195817349Y-102037000D01*
X195857349Y-94011000D02*
X195857349Y-96980000D01*
X195857349Y-99060000D02*
X195857349Y-102029000D01*
X195897349Y-94018000D02*
X195897349Y-96980000D01*
X195897349Y-99060000D02*
X195897349Y-102022000D01*
X195937349Y-94027000D02*
X195937349Y-96980000D01*
X195937349Y-99060000D02*
X195937349Y-102013000D01*
X195977349Y-94035000D02*
X195977349Y-96980000D01*
X195977349Y-99060000D02*
X195977349Y-102005000D01*
X196017349Y-94044000D02*
X196017349Y-96980000D01*
X196017349Y-99060000D02*
X196017349Y-101996000D01*
X196057349Y-94053000D02*
X196057349Y-96980000D01*
X196057349Y-99060000D02*
X196057349Y-101987000D01*
X196097349Y-94063000D02*
X196097349Y-96980000D01*
X196097349Y-99060000D02*
X196097349Y-101977000D01*
X196137349Y-94073000D02*
X196137349Y-96980000D01*
X196137349Y-99060000D02*
X196137349Y-101967000D01*
X196177349Y-94084000D02*
X196177349Y-96980000D01*
X196177349Y-99060000D02*
X196177349Y-101956000D01*
X196217349Y-94095000D02*
X196217349Y-96980000D01*
X196217349Y-99060000D02*
X196217349Y-101945000D01*
X196257349Y-94107000D02*
X196257349Y-96980000D01*
X196257349Y-99060000D02*
X196257349Y-101933000D01*
X196297349Y-94119000D02*
X196297349Y-96980000D01*
X196297349Y-99060000D02*
X196297349Y-101921000D01*
X196337349Y-94131000D02*
X196337349Y-96980000D01*
X196337349Y-99060000D02*
X196337349Y-101909000D01*
X196377349Y-94144000D02*
X196377349Y-96980000D01*
X196377349Y-99060000D02*
X196377349Y-101896000D01*
X196417349Y-94157000D02*
X196417349Y-96980000D01*
X196417349Y-99060000D02*
X196417349Y-101883000D01*
X196457349Y-94171000D02*
X196457349Y-96980000D01*
X196457349Y-99060000D02*
X196457349Y-101869000D01*
X196497349Y-94185000D02*
X196497349Y-96980000D01*
X196497349Y-99060000D02*
X196497349Y-101855000D01*
X196537349Y-94200000D02*
X196537349Y-96980000D01*
X196537349Y-99060000D02*
X196537349Y-101840000D01*
X196577349Y-94215000D02*
X196577349Y-96980000D01*
X196577349Y-99060000D02*
X196577349Y-101825000D01*
X196617349Y-94231000D02*
X196617349Y-96980000D01*
X196617349Y-99060000D02*
X196617349Y-101809000D01*
X196657349Y-94247000D02*
X196657349Y-96980000D01*
X196657349Y-99060000D02*
X196657349Y-101793000D01*
X196697349Y-94263000D02*
X196697349Y-96980000D01*
X196697349Y-99060000D02*
X196697349Y-101777000D01*
X196737349Y-94280000D02*
X196737349Y-96980000D01*
X196737349Y-99060000D02*
X196737349Y-101760000D01*
X196777349Y-94298000D02*
X196777349Y-96980000D01*
X196777349Y-99060000D02*
X196777349Y-101742000D01*
X196817349Y-94316000D02*
X196817349Y-96980000D01*
X196817349Y-99060000D02*
X196817349Y-101724000D01*
X196857349Y-94335000D02*
X196857349Y-96980000D01*
X196857349Y-99060000D02*
X196857349Y-101705000D01*
X196897349Y-94354000D02*
X196897349Y-96980000D01*
X196897349Y-99060000D02*
X196897349Y-101686000D01*
X196937349Y-94374000D02*
X196937349Y-96980000D01*
X196937349Y-99060000D02*
X196937349Y-101666000D01*
X196977349Y-94394000D02*
X196977349Y-96980000D01*
X196977349Y-99060000D02*
X196977349Y-101646000D01*
X197017349Y-94415000D02*
X197017349Y-96980000D01*
X197017349Y-99060000D02*
X197017349Y-101625000D01*
X197057349Y-94436000D02*
X197057349Y-96980000D01*
X197057349Y-99060000D02*
X197057349Y-101604000D01*
X197097349Y-94458000D02*
X197097349Y-96980000D01*
X197097349Y-99060000D02*
X197097349Y-101582000D01*
X197137349Y-94481000D02*
X197137349Y-96980000D01*
X197137349Y-99060000D02*
X197137349Y-101559000D01*
X197177349Y-94504000D02*
X197177349Y-96980000D01*
X197177349Y-99060000D02*
X197177349Y-101536000D01*
X197217349Y-94527000D02*
X197217349Y-96980000D01*
X197217349Y-99060000D02*
X197217349Y-101513000D01*
X197257349Y-94552000D02*
X197257349Y-96980000D01*
X197257349Y-99060000D02*
X197257349Y-101488000D01*
X197297349Y-94577000D02*
X197297349Y-96980000D01*
X197297349Y-99060000D02*
X197297349Y-101463000D01*
X197337349Y-94602000D02*
X197337349Y-96980000D01*
X197337349Y-99060000D02*
X197337349Y-101438000D01*
X197377349Y-94628000D02*
X197377349Y-96980000D01*
X197377349Y-99060000D02*
X197377349Y-101412000D01*
X197417349Y-94655000D02*
X197417349Y-96980000D01*
X197417349Y-99060000D02*
X197417349Y-101385000D01*
X197457349Y-94683000D02*
X197457349Y-96980000D01*
X197457349Y-99060000D02*
X197457349Y-101357000D01*
X197497349Y-94711000D02*
X197497349Y-96980000D01*
X197497349Y-99060000D02*
X197497349Y-101329000D01*
X197537349Y-94740000D02*
X197537349Y-96980000D01*
X197537349Y-99060000D02*
X197537349Y-101300000D01*
X197577349Y-94770000D02*
X197577349Y-96980000D01*
X197577349Y-99060000D02*
X197577349Y-101270000D01*
X197617349Y-94801000D02*
X197617349Y-96980000D01*
X197617349Y-99060000D02*
X197617349Y-101239000D01*
X197657349Y-94832000D02*
X197657349Y-96980000D01*
X197657349Y-99060000D02*
X197657349Y-101208000D01*
X197697349Y-94864000D02*
X197697349Y-96980000D01*
X197697349Y-99060000D02*
X197697349Y-101176000D01*
X197737349Y-94897000D02*
X197737349Y-96980000D01*
X197737349Y-99060000D02*
X197737349Y-101143000D01*
X197777349Y-94931000D02*
X197777349Y-96980000D01*
X197777349Y-99060000D02*
X197777349Y-101109000D01*
X197817349Y-94965000D02*
X197817349Y-96980000D01*
X197817349Y-99060000D02*
X197817349Y-101075000D01*
X197857349Y-95001000D02*
X197857349Y-96980000D01*
X197857349Y-99060000D02*
X197857349Y-101039000D01*
X197897349Y-95038000D02*
X197897349Y-101002000D01*
X197937349Y-95075000D02*
X197937349Y-100965000D01*
X197977349Y-95114000D02*
X197977349Y-100926000D01*
X198017349Y-95153000D02*
X198017349Y-100887000D01*
X198057349Y-95194000D02*
X198057349Y-100846000D01*
X198097349Y-95236000D02*
X198097349Y-100804000D01*
X198137349Y-95279000D02*
X198137349Y-100761000D01*
X198177349Y-95324000D02*
X198177349Y-100716000D01*
X198217349Y-95369000D02*
X198217349Y-100671000D01*
X198257349Y-95416000D02*
X198257349Y-100624000D01*
X198297349Y-95465000D02*
X198297349Y-100575000D01*
X198337349Y-95515000D02*
X198337349Y-100525000D01*
X198377349Y-95567000D02*
X198377349Y-100473000D01*
X198417349Y-95620000D02*
X198417349Y-100420000D01*
X198457349Y-95676000D02*
X198457349Y-100364000D01*
X198497349Y-95733000D02*
X198497349Y-100307000D01*
X198537349Y-95793000D02*
X198537349Y-100247000D01*
X198577349Y-95855000D02*
X198577349Y-100185000D01*
X198617349Y-95919000D02*
X198617349Y-100121000D01*
X198657349Y-95986000D02*
X198657349Y-100054000D01*
X198697349Y-96056000D02*
X198697349Y-99984000D01*
X198737349Y-96130000D02*
X198737349Y-99910000D01*
X198777349Y-96207000D02*
X198777349Y-99833000D01*
X198817349Y-96289000D02*
X198817349Y-99751000D01*
X198857349Y-96376000D02*
X198857349Y-99664000D01*
X198897349Y-96468000D02*
X198897349Y-99572000D01*
X198937349Y-96567000D02*
X198937349Y-99473000D01*
X198977349Y-96674000D02*
X198977349Y-99366000D01*
X199017349Y-96792000D02*
X199017349Y-99248000D01*
X199057349Y-96923000D02*
X199057349Y-99117000D01*
X199097349Y-97073000D02*
X199097349Y-98967000D01*
X199137349Y-97252000D02*
X199137349Y-98788000D01*
X199177349Y-97487000D02*
X199177349Y-98553000D01*
X199217349Y-98020000D02*
G75*
G02*
X190977349Y-98020000I-4120000J0D01*
G01*
X190977349Y-98020000D02*
G75*
G02*
X199217349Y-98020000I4120000J0D01*
G01*
%TO.C,Atmega328p*%
X226350000Y-70660000D02*
X226350000Y-106340000D01*
X226350000Y-106340000D02*
X231650000Y-106340000D01*
X228000000Y-70660000D02*
X226350000Y-70660000D01*
X231650000Y-70660000D02*
X230000000Y-70660000D01*
X231650000Y-106340000D02*
X231650000Y-70660000D01*
X230000000Y-70660000D02*
G75*
G02*
X228000000Y-70660000I-1000000J0D01*
G01*
%TO.C,100nF*%
X209630000Y-75400000D02*
X212370000Y-75400000D01*
X209630000Y-80640000D02*
X209630000Y-75400000D01*
X212370000Y-75400000D02*
X212370000Y-80640000D01*
X212370000Y-80640000D02*
X209630000Y-80640000D01*
%TO.C,C3*%
X207859420Y-97010000D02*
X208140580Y-97010000D01*
X207859420Y-98030000D02*
X208140580Y-98030000D01*
%TO.C,330 R*%
X206960000Y-83520000D02*
X207730000Y-83520000D01*
X215040000Y-83520000D02*
X214270000Y-83520000D01*
X207730000Y-82150000D02*
X214270000Y-82150000D01*
X214270000Y-84890000D01*
X207730000Y-84890000D01*
X207730000Y-82150000D01*
%TO.C,J1*%
X218722000Y-72996000D02*
X220500000Y-72996000D01*
X218722000Y-74774000D02*
X218722000Y-72996000D01*
X218722000Y-75790000D02*
X222278000Y-75790000D01*
X222278000Y-91538000D01*
X218722000Y-91538000D01*
X218722000Y-75790000D01*
%TO.C,R1*%
D14*
X215970000Y-70258000D02*
X221050000Y-70258000D01*
X215970000Y-71020000D02*
X215716000Y-71020000D01*
X215970000Y-71020000D02*
X215970000Y-70258000D01*
X215970000Y-71782000D02*
X215970000Y-71020000D01*
X221050000Y-70258000D02*
X221050000Y-71020000D01*
X221050000Y-71020000D02*
X221050000Y-71782000D01*
X221050000Y-71020000D02*
X221304000Y-71020000D01*
X221050000Y-71782000D02*
X215970000Y-71782000D01*
%TO.C,16 MHz (XTAL)*%
D12*
X211065000Y-98160000D02*
X211065000Y-91760000D01*
X215935000Y-91760000D02*
X215935000Y-98160000D01*
X211065000Y-91760000D02*
G75*
G02*
X215935000Y-91760000I2435000J0D01*
G01*
X215935000Y-98160000D02*
G75*
G02*
X211065000Y-98160000I-2435000J0D01*
G01*
%TO.C,Reset*%
X204000000Y-68250000D02*
X204000000Y-69750000D01*
X205250000Y-72250000D02*
X209750000Y-72250000D01*
X209750000Y-65750000D02*
X205250000Y-65750000D01*
X211000000Y-69750000D02*
X211000000Y-68250000D01*
%TO.C,J3*%
X217590000Y-114690000D02*
X218920000Y-114690000D01*
X217590000Y-116020000D02*
X217590000Y-114690000D01*
X220190000Y-114690000D02*
X238030000Y-114690000D01*
X220190000Y-117350000D02*
X220190000Y-114690000D01*
X220190000Y-117350000D02*
X238030000Y-117350000D01*
X238030000Y-117350000D02*
X238030000Y-114690000D01*
%TO.C,J4*%
D14*
X190750000Y-112620000D02*
X197750000Y-112620000D01*
X190750000Y-118820000D02*
X190750000Y-112620000D01*
X190750000Y-119620000D02*
X190750000Y-118820000D01*
X197750000Y-112620000D02*
X197750000Y-118820000D01*
X197750000Y-118820000D02*
X190750000Y-118820000D01*
X197750000Y-118820000D02*
X197750000Y-119620000D01*
X197750000Y-119620000D02*
X190750000Y-119620000D01*
%TO.C,U2*%
D12*
X190850000Y-106190000D02*
X201070000Y-106190000D01*
X190850000Y-107570000D02*
X201070000Y-107570000D01*
X190850000Y-110810000D02*
X190850000Y-106190000D01*
X194110000Y-106190000D02*
X194110000Y-107570000D01*
X197810000Y-106190000D02*
X197810000Y-107570000D01*
X201070000Y-106190000D02*
X201070000Y-110810000D01*
X201070000Y-110810000D02*
X190850000Y-110810000D01*
%TO.C,J2*%
X234670000Y-73260000D02*
X234670000Y-106340000D01*
X234670000Y-73260000D02*
X237330000Y-73260000D01*
X234670000Y-106340000D02*
X237330000Y-106340000D01*
X236000000Y-70660000D02*
X237330000Y-70660000D01*
X237330000Y-70660000D02*
X237330000Y-71990000D01*
X237330000Y-73260000D02*
X237330000Y-106340000D01*
%TO.C,100nF*%
X217630000Y-66150000D02*
X222870000Y-66150000D01*
X217630000Y-68890000D02*
X217630000Y-66150000D01*
X222870000Y-66150000D02*
X222870000Y-68890000D01*
X222870000Y-68890000D02*
X217630000Y-68890000D01*
%TD*%
M02*
